<?xml version="1.0" encoding="UTF-8" standalone="no"?>
<!DOCTYPE svg PUBLIC "-//W3C//DTD SVG 1.1//EN"
 "http://www.w3.org/Graphics/SVG/1.1/DTD/svg11.dtd">
<!-- Generated by graphviz version 2.40.1 (20161225.0304)
 -->
<!-- Title: dependencies Pages: 1 -->
<svg width="504pt" height="211pt"
 viewBox="0.00 0.00 504.00 211.00" xmlns="http://www.w3.org/2000/svg" xmlns:xlink="http://www.w3.org/1999/xlink">
<g id="graph0" class="graph" transform="scale(1 1) rotate(0) translate(4 207)">
<title>dependencies</title>
<polygon fill="#ffffff" stroke="transparent" points="-4,4 -4,-207 500,-207 500,4 -4,4"/>
<text text-anchor="start" x="227.0091" y="-42.4" font-family="sans-serif" font-weight="bold" font-size="14.00" fill="#000000">Legend</text>
<polygon fill="#ffffb3" stroke="transparent" points="14,-10 14,-30 34,-30 34,-10 14,-10"/>
<text text-anchor="start" x="37.629" y="-15.4" font-family="sans-serif" font-size="14.00" fill="#000000"> &#160;Declarations</text>
<polygon fill="#8dd3c7" stroke="transparent" points="127,-10 127,-30 147,-30 147,-10 127,-10"/>
<text text-anchor="start" x="150.7251" y="-15.4" font-family="sans-serif" font-size="14.00" fill="#000000"> &#160;Module</text>
<polygon fill="#80b1d3" stroke="transparent" points="213,-10 213,-30 233,-30 233,-10 213,-10"/>
<text text-anchor="start" x="236.7812" y="-15.4" font-family="sans-serif" font-size="14.00" fill="#000000"> &#160;Bootstrap</text>
<polygon fill="#fdb462" stroke="transparent" points="310,-10 310,-30 330,-30 330,-10 310,-10"/>
<text text-anchor="start" x="333.6732" y="-15.4" font-family="sans-serif" font-size="14.00" fill="#000000"> &#160;Providers</text>
<polygon fill="#fb8072" stroke="transparent" points="406,-10 406,-30 426,-30 426,-10 406,-10"/>
<text text-anchor="start" x="429.7258" y="-15.4" font-family="sans-serif" font-size="14.00" fill="#000000"> &#160;Exports</text>
<g id="clust1" class="cluster">
<title>cluster_NotificacionesModule</title>
<polygon fill="none" stroke="#000000" stroke-dasharray="1,5" points="12.5,-70 12.5,-195 483.5,-195 483.5,-70 12.5,-70"/>
</g>
<g id="clust2" class="cluster">
<title>cluster_NotificacionesModule_declarations</title>
<polygon fill="none" stroke="#000000" points="297.5,-78 297.5,-130 475.5,-130 475.5,-78 297.5,-78"/>
</g>
<g id="clust4" class="cluster">
<title>cluster_NotificacionesModule_imports</title>
<polygon fill="none" stroke="#000000" points="20.5,-78 20.5,-130 289.5,-130 289.5,-78 20.5,-78"/>
</g>
<!-- NotificacionesComponent -->
<g id="node1" class="node">
<title>NotificacionesComponent</title>
<polygon fill="#ffffb3" stroke="#000000" points="467.965,-122 305.035,-122 305.035,-86 467.965,-86 467.965,-122"/>
<text text-anchor="middle" x="386.5" y="-99.8" font-family="Times,serif" font-size="14.00" fill="#000000">NotificacionesComponent</text>
</g>
<!-- NotificacionesModule -->
<g id="node2" class="node">
<title>NotificacionesModule</title>
<polygon fill="#8dd3c7" stroke="#000000" points="288.1825,-187 285.1825,-191 264.1825,-191 261.1825,-187 146.8175,-187 146.8175,-151 288.1825,-151 288.1825,-187"/>
<text text-anchor="middle" x="217.5" y="-164.8" font-family="Times,serif" font-size="14.00" fill="#000000">NotificacionesModule</text>
</g>
<!-- NotificacionesComponent&#45;&gt;NotificacionesModule -->
<g id="edge1" class="edge">
<title>NotificacionesComponent&#45;&gt;NotificacionesModule</title>
<path fill="none" stroke="#000000" d="M386.5,-122.1061C386.5,-141.3391 386.5,-169 386.5,-169 386.5,-169 298.192,-169 298.192,-169"/>
<polygon fill="#000000" stroke="#000000" points="298.192,-165.5001 288.192,-169 298.192,-172.5001 298.192,-165.5001"/>
</g>
<!-- AppRoutingModule -->
<g id="node3" class="node">
<title>AppRoutingModule</title>
<polygon fill="#8dd3c7" stroke="#000000" points="281.7744,-122 278.7744,-126 257.7744,-126 254.7744,-122 153.2256,-122 153.2256,-86 281.7744,-86 281.7744,-122"/>
<text text-anchor="middle" x="217.5" y="-99.8" font-family="Times,serif" font-size="14.00" fill="#000000">AppRoutingModule</text>
</g>
<!-- AppRoutingModule&#45;&gt;NotificacionesModule -->
<g id="edge2" class="edge">
<title>AppRoutingModule&#45;&gt;NotificacionesModule</title>
<path fill="none" stroke="#000000" d="M217.5,-122.1061C217.5,-122.1061 217.5,-140.991 217.5,-140.991"/>
<polygon fill="#000000" stroke="#000000" points="214.0001,-140.9909 217.5,-150.991 221.0001,-140.991 214.0001,-140.9909"/>
</g>
<!-- MaterialModule -->
<g id="node4" class="node">
<title>MaterialModule</title>
<polygon fill="#8dd3c7" stroke="#000000" points="134.9706,-122 131.9706,-126 110.9706,-126 107.9706,-122 28.0294,-122 28.0294,-86 134.9706,-86 134.9706,-122"/>
<text text-anchor="middle" x="81.5" y="-99.8" font-family="Times,serif" font-size="14.00" fill="#000000">MaterialModule</text>
</g>
<!-- MaterialModule&#45;&gt;NotificacionesModule -->
<g id="edge3" class="edge">
<title>MaterialModule&#45;&gt;NotificacionesModule</title>
<path fill="none" stroke="#000000" d="M81.5,-122.1061C81.5,-141.3391 81.5,-169 81.5,-169 81.5,-169 136.7116,-169 136.7116,-169"/>
<polygon fill="#000000" stroke="#000000" points="136.7117,-172.5001 146.7116,-169 136.7116,-165.5001 136.7117,-172.5001"/>
</g>
</g>
</svg>
