<?xml version="1.0" encoding="UTF-8" standalone="no"?>
<!DOCTYPE svg PUBLIC "-//W3C//DTD SVG 1.1//EN"
 "http://www.w3.org/Graphics/SVG/1.1/DTD/svg11.dtd">
<!-- Generated by graphviz version 2.40.1 (20161225.0304)
 -->
<!-- Title: dependencies Pages: 1 -->
<svg width="641pt" height="284pt"
 viewBox="0.00 0.00 641.00 284.00" xmlns="http://www.w3.org/2000/svg" xmlns:xlink="http://www.w3.org/1999/xlink">
<g id="graph0" class="graph" transform="scale(1 1) rotate(0) translate(4 280)">
<title>dependencies</title>
<polygon fill="#ffffff" stroke="transparent" points="-4,4 -4,-280 637,-280 637,4 -4,4"/>
<text text-anchor="start" x="295.5091" y="-42.4" font-family="sans-serif" font-weight="bold" font-size="14.00" fill="#000000">Legend</text>
<polygon fill="#ffffb3" stroke="transparent" points="82.5,-10 82.5,-30 102.5,-30 102.5,-10 82.5,-10"/>
<text text-anchor="start" x="106.129" y="-15.4" font-family="sans-serif" font-size="14.00" fill="#000000"> &#160;Declarations</text>
<polygon fill="#8dd3c7" stroke="transparent" points="195.5,-10 195.5,-30 215.5,-30 215.5,-10 195.5,-10"/>
<text text-anchor="start" x="219.2251" y="-15.4" font-family="sans-serif" font-size="14.00" fill="#000000"> &#160;Module</text>
<polygon fill="#80b1d3" stroke="transparent" points="281.5,-10 281.5,-30 301.5,-30 301.5,-10 281.5,-10"/>
<text text-anchor="start" x="305.2812" y="-15.4" font-family="sans-serif" font-size="14.00" fill="#000000"> &#160;Bootstrap</text>
<polygon fill="#fdb462" stroke="transparent" points="378.5,-10 378.5,-30 398.5,-30 398.5,-10 378.5,-10"/>
<text text-anchor="start" x="402.1732" y="-15.4" font-family="sans-serif" font-size="14.00" fill="#000000"> &#160;Providers</text>
<polygon fill="#fb8072" stroke="transparent" points="474.5,-10 474.5,-30 494.5,-30 494.5,-10 474.5,-10"/>
<text text-anchor="start" x="498.2258" y="-15.4" font-family="sans-serif" font-size="14.00" fill="#000000"> &#160;Exports</text>
<g id="clust1" class="cluster">
<title>cluster_PostModule</title>
<polygon fill="none" stroke="#000000" stroke-dasharray="1,5" points="8,-70 8,-268 625,-268 625,-70 8,-70"/>
</g>
<g id="clust2" class="cluster">
<title>cluster_PostModule_declarations</title>
<polygon fill="none" stroke="#000000" points="293,-78 293,-130 617,-130 617,-78 293,-78"/>
</g>
<g id="clust5" class="cluster">
<title>cluster_PostModule_imports</title>
<polygon fill="none" stroke="#000000" points="16,-78 16,-130 285,-130 285,-78 16,-78"/>
</g>
<g id="clust6" class="cluster">
<title>cluster_PostModule_exports</title>
<polygon fill="none" stroke="#000000" points="136,-208 136,-260 466,-260 466,-208 136,-208"/>
</g>
<!-- DeleteComentarioComponent -->
<g id="node1" class="node">
<title>DeleteComentarioComponent</title>
<polygon fill="#ffffb3" stroke="#000000" points="608.9622,-122 425.0378,-122 425.0378,-86 608.9622,-86 608.9622,-122"/>
<text text-anchor="middle" x="517" y="-99.8" font-family="Times,serif" font-size="14.00" fill="#000000">DeleteComentarioComponent</text>
</g>
<!-- PostModule -->
<g id="node3" class="node">
<title>PostModule</title>
<polygon fill="#8dd3c7" stroke="#000000" points="322.6683,-187 319.6683,-191 298.6683,-191 295.6683,-187 239.3317,-187 239.3317,-151 322.6683,-151 322.6683,-187"/>
<text text-anchor="middle" x="281" y="-164.8" font-family="Times,serif" font-size="14.00" fill="#000000">PostModule</text>
</g>
<!-- DeleteComentarioComponent&#45;&gt;PostModule -->
<g id="edge1" class="edge">
<title>DeleteComentarioComponent&#45;&gt;PostModule</title>
<path fill="none" stroke="#000000" d="M441.375,-122.1061C441.375,-141.3391 441.375,-169 441.375,-169 441.375,-169 332.718,-169 332.718,-169"/>
<polygon fill="#000000" stroke="#000000" points="332.718,-165.5001 322.718,-169 332.718,-172.5001 332.718,-165.5001"/>
</g>
<!-- PostComponent -->
<g id="node2" class="node">
<title>PostComponent</title>
<polygon fill="#ffffb3" stroke="#000000" points="406.9512,-122 301.0488,-122 301.0488,-86 406.9512,-86 406.9512,-122"/>
<text text-anchor="middle" x="354" y="-99.8" font-family="Times,serif" font-size="14.00" fill="#000000">PostComponent</text>
</g>
<!-- PostComponent&#45;&gt;PostModule -->
<g id="edge2" class="edge">
<title>PostComponent&#45;&gt;PostModule</title>
<path fill="none" stroke="#000000" d="M312.0544,-122.1061C312.0544,-122.1061 312.0544,-140.991 312.0544,-140.991"/>
<polygon fill="#000000" stroke="#000000" points="308.5544,-140.9909 312.0544,-150.991 315.5544,-140.991 308.5544,-140.9909"/>
</g>
<!-- DeleteComentarioComponent  -->
<g id="node6" class="node">
<title>DeleteComentarioComponent </title>
<polygon fill="#fb8072" stroke="#000000" points="457.9628,-252 270.0372,-252 270.0372,-216 457.9628,-216 457.9628,-252"/>
<text text-anchor="middle" x="364" y="-229.8" font-family="Times,serif" font-size="14.00" fill="#000000">DeleteComentarioComponent </text>
</g>
<!-- PostModule&#45;&gt;DeleteComentarioComponent  -->
<g id="edge5" class="edge">
<title>PostModule&#45;&gt;DeleteComentarioComponent </title>
<path fill="none" stroke="#000000" stroke-dasharray="5,2" d="M296.5514,-187.1061C296.5514,-187.1061 296.5514,-205.991 296.5514,-205.991"/>
<polygon fill="#000000" stroke="#000000" points="293.0514,-205.9909 296.5514,-215.991 300.0514,-205.991 293.0514,-205.9909"/>
</g>
<!-- PostComponent  -->
<g id="node7" class="node">
<title>PostComponent </title>
<polygon fill="#fb8072" stroke="#000000" points="252.4502,-252 143.5498,-252 143.5498,-216 252.4502,-216 252.4502,-252"/>
<text text-anchor="middle" x="198" y="-229.8" font-family="Times,serif" font-size="14.00" fill="#000000">PostComponent </text>
</g>
<!-- PostModule&#45;&gt;PostComponent  -->
<g id="edge6" class="edge">
<title>PostModule&#45;&gt;PostComponent </title>
<path fill="none" stroke="#000000" stroke-dasharray="5,2" d="M245.8207,-187.1061C245.8207,-187.1061 245.8207,-205.991 245.8207,-205.991"/>
<polygon fill="#000000" stroke="#000000" points="242.3207,-205.9909 245.8207,-215.991 249.3207,-205.991 242.3207,-205.9909"/>
</g>
<!-- AppRoutingModule -->
<g id="node4" class="node">
<title>AppRoutingModule</title>
<polygon fill="#8dd3c7" stroke="#000000" points="277.2744,-122 274.2744,-126 253.2744,-126 250.2744,-122 148.7256,-122 148.7256,-86 277.2744,-86 277.2744,-122"/>
<text text-anchor="middle" x="213" y="-99.8" font-family="Times,serif" font-size="14.00" fill="#000000">AppRoutingModule</text>
</g>
<!-- AppRoutingModule&#45;&gt;PostModule -->
<g id="edge3" class="edge">
<title>AppRoutingModule&#45;&gt;PostModule</title>
<path fill="none" stroke="#000000" d="M258.2767,-122.1061C258.2767,-122.1061 258.2767,-140.991 258.2767,-140.991"/>
<polygon fill="#000000" stroke="#000000" points="254.7767,-140.9909 258.2767,-150.991 261.7767,-140.991 254.7767,-140.9909"/>
</g>
<!-- MaterialModule -->
<g id="node5" class="node">
<title>MaterialModule</title>
<polygon fill="#8dd3c7" stroke="#000000" points="130.4706,-122 127.4706,-126 106.4706,-126 103.4706,-122 23.5294,-122 23.5294,-86 130.4706,-86 130.4706,-122"/>
<text text-anchor="middle" x="77" y="-99.8" font-family="Times,serif" font-size="14.00" fill="#000000">MaterialModule</text>
</g>
<!-- MaterialModule&#45;&gt;PostModule -->
<g id="edge4" class="edge">
<title>MaterialModule&#45;&gt;PostModule</title>
<path fill="none" stroke="#000000" d="M77,-122.1061C77,-141.3391 77,-169 77,-169 77,-169 229.2253,-169 229.2253,-169"/>
<polygon fill="#000000" stroke="#000000" points="229.2253,-172.5001 239.2253,-169 229.2253,-165.5001 229.2253,-172.5001"/>
</g>
</g>
</svg>
