<?xml version="1.0" encoding="UTF-8" standalone="no"?>
<!DOCTYPE svg PUBLIC "-//W3C//DTD SVG 1.1//EN"
 "http://www.w3.org/Graphics/SVG/1.1/DTD/svg11.dtd">
<!-- Generated by graphviz version 2.40.1 (20161225.0304)
 -->
<!-- Title: dependencies Pages: 1 -->
<svg width="931pt" height="284pt"
 viewBox="0.00 0.00 931.00 284.00" xmlns="http://www.w3.org/2000/svg" xmlns:xlink="http://www.w3.org/1999/xlink">
<g id="graph0" class="graph" transform="scale(1 1) rotate(0) translate(4 280)">
<title>dependencies</title>
<polygon fill="#ffffff" stroke="transparent" points="-4,4 -4,-280 927,-280 927,4 -4,4"/>
<text text-anchor="start" x="440.5091" y="-42.4" font-family="sans-serif" font-weight="bold" font-size="14.00" fill="#000000">Legend</text>
<polygon fill="#ffffb3" stroke="transparent" points="227.5,-10 227.5,-30 247.5,-30 247.5,-10 227.5,-10"/>
<text text-anchor="start" x="251.129" y="-15.4" font-family="sans-serif" font-size="14.00" fill="#000000"> &#160;Declarations</text>
<polygon fill="#8dd3c7" stroke="transparent" points="340.5,-10 340.5,-30 360.5,-30 360.5,-10 340.5,-10"/>
<text text-anchor="start" x="364.2251" y="-15.4" font-family="sans-serif" font-size="14.00" fill="#000000"> &#160;Module</text>
<polygon fill="#80b1d3" stroke="transparent" points="426.5,-10 426.5,-30 446.5,-30 446.5,-10 426.5,-10"/>
<text text-anchor="start" x="450.2812" y="-15.4" font-family="sans-serif" font-size="14.00" fill="#000000"> &#160;Bootstrap</text>
<polygon fill="#fdb462" stroke="transparent" points="523.5,-10 523.5,-30 543.5,-30 543.5,-10 523.5,-10"/>
<text text-anchor="start" x="547.1732" y="-15.4" font-family="sans-serif" font-size="14.00" fill="#000000"> &#160;Providers</text>
<polygon fill="#fb8072" stroke="transparent" points="619.5,-10 619.5,-30 639.5,-30 639.5,-10 619.5,-10"/>
<text text-anchor="start" x="643.2258" y="-15.4" font-family="sans-serif" font-size="14.00" fill="#000000"> &#160;Exports</text>
<g id="clust1" class="cluster">
<title>cluster_CarteleraModule</title>
<polygon fill="none" stroke="#000000" stroke-dasharray="1,5" points="8,-70 8,-268 915,-268 915,-70 8,-70"/>
</g>
<g id="clust2" class="cluster">
<title>cluster_CarteleraModule_declarations</title>
<polygon fill="none" stroke="#000000" points="293,-78 293,-130 907,-130 907,-78 293,-78"/>
</g>
<g id="clust7" class="cluster">
<title>cluster_CarteleraModule_imports</title>
<polygon fill="none" stroke="#000000" points="16,-78 16,-130 285,-130 285,-78 16,-78"/>
</g>
<g id="clust8" class="cluster">
<title>cluster_CarteleraModule_exports</title>
<polygon fill="none" stroke="#000000" points="365,-208 365,-260 517,-260 517,-208 365,-208"/>
</g>
<!-- CarteleraComponent -->
<g id="node1" class="node">
<title>CarteleraComponent</title>
<polygon fill="#ffffb3" stroke="#000000" points="899.1303,-122 766.8697,-122 766.8697,-86 899.1303,-86 899.1303,-122"/>
<text text-anchor="middle" x="833" y="-99.8" font-family="Times,serif" font-size="14.00" fill="#000000">CarteleraComponent</text>
</g>
<!-- CarteleraModule -->
<g id="node5" class="node">
<title>CarteleraModule</title>
<polygon fill="#8dd3c7" stroke="#000000" points="496.3473,-187 493.3473,-191 472.3473,-191 469.3473,-187 385.6527,-187 385.6527,-151 496.3473,-151 496.3473,-187"/>
<text text-anchor="middle" x="441" y="-164.8" font-family="Times,serif" font-size="14.00" fill="#000000">CarteleraModule</text>
</g>
<!-- CarteleraComponent&#45;&gt;CarteleraModule -->
<g id="edge1" class="edge">
<title>CarteleraComponent&#45;&gt;CarteleraModule</title>
<path fill="none" stroke="#000000" d="M833,-122.2843C833,-143.3211 833,-175 833,-175 833,-175 506.7477,-175 506.7477,-175"/>
<polygon fill="#000000" stroke="#000000" points="506.7478,-171.5001 496.7477,-175 506.7477,-178.5001 506.7478,-171.5001"/>
</g>
<!-- CreatePostComponent -->
<g id="node2" class="node">
<title>CreatePostComponent</title>
<polygon fill="#ffffb3" stroke="#000000" points="748.9818,-122 607.0182,-122 607.0182,-86 748.9818,-86 748.9818,-122"/>
<text text-anchor="middle" x="678" y="-99.8" font-family="Times,serif" font-size="14.00" fill="#000000">CreatePostComponent</text>
</g>
<!-- CreatePostComponent&#45;&gt;CarteleraModule -->
<g id="edge2" class="edge">
<title>CreatePostComponent&#45;&gt;CarteleraModule</title>
<path fill="none" stroke="#000000" d="M678,-122.0225C678,-139.3734 678,-163 678,-163 678,-163 506.566,-163 506.566,-163"/>
<polygon fill="#000000" stroke="#000000" points="506.566,-159.5001 496.566,-163 506.5659,-166.5001 506.566,-159.5001"/>
</g>
<!-- DeletePostComponent -->
<g id="node3" class="node">
<title>DeletePostComponent</title>
<polygon fill="#ffffb3" stroke="#000000" points="588.9818,-122 447.0182,-122 447.0182,-86 588.9818,-86 588.9818,-122"/>
<text text-anchor="middle" x="518" y="-99.8" font-family="Times,serif" font-size="14.00" fill="#000000">DeletePostComponent</text>
</g>
<!-- DeletePostComponent&#45;&gt;CarteleraModule -->
<g id="edge3" class="edge">
<title>DeletePostComponent&#45;&gt;CarteleraModule</title>
<path fill="none" stroke="#000000" d="M471.7164,-122.1061C471.7164,-122.1061 471.7164,-140.991 471.7164,-140.991"/>
<polygon fill="#000000" stroke="#000000" points="468.2164,-140.9909 471.7164,-150.991 475.2164,-140.991 468.2164,-140.9909"/>
</g>
<!-- EditPostComponent -->
<g id="node4" class="node">
<title>EditPostComponent</title>
<polygon fill="#ffffb3" stroke="#000000" points="429.2842,-122 300.7158,-122 300.7158,-86 429.2842,-86 429.2842,-122"/>
<text text-anchor="middle" x="365" y="-99.8" font-family="Times,serif" font-size="14.00" fill="#000000">EditPostComponent</text>
</g>
<!-- EditPostComponent&#45;&gt;CarteleraModule -->
<g id="edge4" class="edge">
<title>EditPostComponent&#45;&gt;CarteleraModule</title>
<path fill="none" stroke="#000000" d="M407.4842,-122.1061C407.4842,-122.1061 407.4842,-140.991 407.4842,-140.991"/>
<polygon fill="#000000" stroke="#000000" points="403.9843,-140.9909 407.4842,-150.991 410.9843,-140.991 403.9843,-140.9909"/>
</g>
<!-- CarteleraComponent  -->
<g id="node8" class="node">
<title>CarteleraComponent </title>
<polygon fill="#fb8072" stroke="#000000" points="509.1299,-252 372.8701,-252 372.8701,-216 509.1299,-216 509.1299,-252"/>
<text text-anchor="middle" x="441" y="-229.8" font-family="Times,serif" font-size="14.00" fill="#000000">CarteleraComponent </text>
</g>
<!-- CarteleraModule&#45;&gt;CarteleraComponent  -->
<g id="edge7" class="edge">
<title>CarteleraModule&#45;&gt;CarteleraComponent </title>
<path fill="none" stroke="#000000" stroke-dasharray="5,2" d="M441,-187.1061C441,-187.1061 441,-205.991 441,-205.991"/>
<polygon fill="#000000" stroke="#000000" points="437.5001,-205.9909 441,-215.991 444.5001,-205.991 437.5001,-205.9909"/>
</g>
<!-- AppRoutingModule -->
<g id="node6" class="node">
<title>AppRoutingModule</title>
<polygon fill="#8dd3c7" stroke="#000000" points="277.2744,-122 274.2744,-126 253.2744,-126 250.2744,-122 148.7256,-122 148.7256,-86 277.2744,-86 277.2744,-122"/>
<text text-anchor="middle" x="213" y="-99.8" font-family="Times,serif" font-size="14.00" fill="#000000">AppRoutingModule</text>
</g>
<!-- AppRoutingModule&#45;&gt;CarteleraModule -->
<g id="edge5" class="edge">
<title>AppRoutingModule&#45;&gt;CarteleraModule</title>
<path fill="none" stroke="#000000" d="M213,-122.0225C213,-139.3734 213,-163 213,-163 213,-163 375.5165,-163 375.5165,-163"/>
<polygon fill="#000000" stroke="#000000" points="375.5165,-166.5001 385.5165,-163 375.5164,-159.5001 375.5165,-166.5001"/>
</g>
<!-- MaterialModule -->
<g id="node7" class="node">
<title>MaterialModule</title>
<polygon fill="#8dd3c7" stroke="#000000" points="130.4706,-122 127.4706,-126 106.4706,-126 103.4706,-122 23.5294,-122 23.5294,-86 130.4706,-86 130.4706,-122"/>
<text text-anchor="middle" x="77" y="-99.8" font-family="Times,serif" font-size="14.00" fill="#000000">MaterialModule</text>
</g>
<!-- MaterialModule&#45;&gt;CarteleraModule -->
<g id="edge6" class="edge">
<title>MaterialModule&#45;&gt;CarteleraModule</title>
<path fill="none" stroke="#000000" d="M77,-122.2843C77,-143.3211 77,-175 77,-175 77,-175 375.32,-175 375.32,-175"/>
<polygon fill="#000000" stroke="#000000" points="375.32,-178.5001 385.32,-175 375.32,-171.5001 375.32,-178.5001"/>
</g>
</g>
</svg>
