<?xml version="1.0" encoding="UTF-8" standalone="no"?>
<!DOCTYPE svg PUBLIC "-//W3C//DTD SVG 1.1//EN"
 "http://www.w3.org/Graphics/SVG/1.1/DTD/svg11.dtd">
<!-- Generated by graphviz version 2.40.1 (20161225.0304)
 -->
<!-- Title: dependencies Pages: 1 -->
<svg width="1149pt" height="284pt"
 viewBox="0.00 0.00 1149.00 284.00" xmlns="http://www.w3.org/2000/svg" xmlns:xlink="http://www.w3.org/1999/xlink">
<g id="graph0" class="graph" transform="scale(1 1) rotate(0) translate(4 280)">
<title>dependencies</title>
<polygon fill="#ffffff" stroke="transparent" points="-4,4 -4,-280 1145,-280 1145,4 -4,4"/>
<text text-anchor="start" x="549.5091" y="-42.4" font-family="sans-serif" font-weight="bold" font-size="14.00" fill="#000000">Legend</text>
<polygon fill="#ffffb3" stroke="transparent" points="336.5,-10 336.5,-30 356.5,-30 356.5,-10 336.5,-10"/>
<text text-anchor="start" x="360.129" y="-15.4" font-family="sans-serif" font-size="14.00" fill="#000000"> &#160;Declarations</text>
<polygon fill="#8dd3c7" stroke="transparent" points="449.5,-10 449.5,-30 469.5,-30 469.5,-10 449.5,-10"/>
<text text-anchor="start" x="473.2251" y="-15.4" font-family="sans-serif" font-size="14.00" fill="#000000"> &#160;Module</text>
<polygon fill="#80b1d3" stroke="transparent" points="535.5,-10 535.5,-30 555.5,-30 555.5,-10 535.5,-10"/>
<text text-anchor="start" x="559.2812" y="-15.4" font-family="sans-serif" font-size="14.00" fill="#000000"> &#160;Bootstrap</text>
<polygon fill="#fdb462" stroke="transparent" points="632.5,-10 632.5,-30 652.5,-30 652.5,-10 632.5,-10"/>
<text text-anchor="start" x="656.1732" y="-15.4" font-family="sans-serif" font-size="14.00" fill="#000000"> &#160;Providers</text>
<polygon fill="#fb8072" stroke="transparent" points="728.5,-10 728.5,-30 748.5,-30 748.5,-10 728.5,-10"/>
<text text-anchor="start" x="752.2258" y="-15.4" font-family="sans-serif" font-size="14.00" fill="#000000"> &#160;Exports</text>
<g id="clust1" class="cluster">
<title>cluster_CarteleraModule</title>
<polygon fill="none" stroke="#000000" stroke-dasharray="1,5" points="8,-70 8,-268 1133,-268 1133,-70 8,-70"/>
</g>
<g id="clust2" class="cluster">
<title>cluster_CarteleraModule_declarations</title>
<polygon fill="none" stroke="#000000" points="293,-78 293,-130 1125,-130 1125,-78 293,-78"/>
</g>
<g id="clust8" class="cluster">
<title>cluster_CarteleraModule_imports</title>
<polygon fill="none" stroke="#000000" points="16,-78 16,-130 285,-130 285,-78 16,-78"/>
</g>
<g id="clust9" class="cluster">
<title>cluster_CarteleraModule_exports</title>
<polygon fill="none" stroke="#000000" points="442,-208 442,-260 594,-260 594,-208 442,-208"/>
</g>
<!-- AdministrarPermisosComponent -->
<g id="node1" class="node">
<title>AdministrarPermisosComponent</title>
<polygon fill="#ffffb3" stroke="#000000" points="1117.3102,-122 916.6898,-122 916.6898,-86 1117.3102,-86 1117.3102,-122"/>
<text text-anchor="middle" x="1017" y="-99.8" font-family="Times,serif" font-size="14.00" fill="#000000">AdministrarPermisosComponent</text>
</g>
<!-- CarteleraModule -->
<g id="node6" class="node">
<title>CarteleraModule</title>
<polygon fill="#8dd3c7" stroke="#000000" points="573.3473,-187 570.3473,-191 549.3473,-191 546.3473,-187 462.6527,-187 462.6527,-151 573.3473,-151 573.3473,-187"/>
<text text-anchor="middle" x="518" y="-164.8" font-family="Times,serif" font-size="14.00" fill="#000000">CarteleraModule</text>
</g>
<!-- AdministrarPermisosComponent&#45;&gt;CarteleraModule -->
<g id="edge1" class="edge">
<title>AdministrarPermisosComponent&#45;&gt;CarteleraModule</title>
<path fill="none" stroke="#000000" d="M1017,-122.2921C1017,-144.2057 1017,-178 1017,-178 1017,-178 583.7891,-178 583.7891,-178"/>
<polygon fill="#000000" stroke="#000000" points="583.7892,-174.5001 573.7891,-178 583.7891,-181.5001 583.7892,-174.5001"/>
</g>
<!-- CarteleraComponent -->
<g id="node2" class="node">
<title>CarteleraComponent</title>
<polygon fill="#ffffb3" stroke="#000000" points="899.1303,-122 766.8697,-122 766.8697,-86 899.1303,-86 899.1303,-122"/>
<text text-anchor="middle" x="833" y="-99.8" font-family="Times,serif" font-size="14.00" fill="#000000">CarteleraComponent</text>
</g>
<!-- CarteleraComponent&#45;&gt;CarteleraModule -->
<g id="edge2" class="edge">
<title>CarteleraComponent&#45;&gt;CarteleraModule</title>
<path fill="none" stroke="#000000" d="M833,-122.1061C833,-141.3391 833,-169 833,-169 833,-169 583.5906,-169 583.5906,-169"/>
<polygon fill="#000000" stroke="#000000" points="583.5906,-165.5001 573.5906,-169 583.5905,-172.5001 583.5906,-165.5001"/>
</g>
<!-- CreatePostComponent -->
<g id="node3" class="node">
<title>CreatePostComponent</title>
<polygon fill="#ffffb3" stroke="#000000" points="748.9818,-122 607.0182,-122 607.0182,-86 748.9818,-86 748.9818,-122"/>
<text text-anchor="middle" x="678" y="-99.8" font-family="Times,serif" font-size="14.00" fill="#000000">CreatePostComponent</text>
</g>
<!-- CreatePostComponent&#45;&gt;CarteleraModule -->
<g id="edge3" class="edge">
<title>CreatePostComponent&#45;&gt;CarteleraModule</title>
<path fill="none" stroke="#000000" d="M678,-122.027C678,-138.3976 678,-160 678,-160 678,-160 583.5112,-160 583.5112,-160"/>
<polygon fill="#000000" stroke="#000000" points="583.5112,-156.5001 573.5112,-160 583.5112,-163.5001 583.5112,-156.5001"/>
</g>
<!-- DeletePostComponent -->
<g id="node4" class="node">
<title>DeletePostComponent</title>
<polygon fill="#ffffb3" stroke="#000000" points="588.9818,-122 447.0182,-122 447.0182,-86 588.9818,-86 588.9818,-122"/>
<text text-anchor="middle" x="518" y="-99.8" font-family="Times,serif" font-size="14.00" fill="#000000">DeletePostComponent</text>
</g>
<!-- DeletePostComponent&#45;&gt;CarteleraModule -->
<g id="edge4" class="edge">
<title>DeletePostComponent&#45;&gt;CarteleraModule</title>
<path fill="none" stroke="#000000" d="M518,-122.1061C518,-122.1061 518,-140.991 518,-140.991"/>
<polygon fill="#000000" stroke="#000000" points="514.5001,-140.9909 518,-150.991 521.5001,-140.991 514.5001,-140.9909"/>
</g>
<!-- EditPostComponent -->
<g id="node5" class="node">
<title>EditPostComponent</title>
<polygon fill="#ffffb3" stroke="#000000" points="429.2842,-122 300.7158,-122 300.7158,-86 429.2842,-86 429.2842,-122"/>
<text text-anchor="middle" x="365" y="-99.8" font-family="Times,serif" font-size="14.00" fill="#000000">EditPostComponent</text>
</g>
<!-- EditPostComponent&#45;&gt;CarteleraModule -->
<g id="edge5" class="edge">
<title>EditPostComponent&#45;&gt;CarteleraModule</title>
<path fill="none" stroke="#000000" d="M365,-122.027C365,-138.3976 365,-160 365,-160 365,-160 452.3307,-160 452.3307,-160"/>
<polygon fill="#000000" stroke="#000000" points="452.3307,-163.5001 462.3307,-160 452.3306,-156.5001 452.3307,-163.5001"/>
</g>
<!-- CarteleraComponent  -->
<g id="node9" class="node">
<title>CarteleraComponent </title>
<polygon fill="#fb8072" stroke="#000000" points="586.1299,-252 449.8701,-252 449.8701,-216 586.1299,-216 586.1299,-252"/>
<text text-anchor="middle" x="518" y="-229.8" font-family="Times,serif" font-size="14.00" fill="#000000">CarteleraComponent </text>
</g>
<!-- CarteleraModule&#45;&gt;CarteleraComponent  -->
<g id="edge8" class="edge">
<title>CarteleraModule&#45;&gt;CarteleraComponent </title>
<path fill="none" stroke="#000000" stroke-dasharray="5,2" d="M518,-187.1061C518,-187.1061 518,-205.991 518,-205.991"/>
<polygon fill="#000000" stroke="#000000" points="514.5001,-205.9909 518,-215.991 521.5001,-205.991 514.5001,-205.9909"/>
</g>
<!-- AppRoutingModule -->
<g id="node7" class="node">
<title>AppRoutingModule</title>
<polygon fill="#8dd3c7" stroke="#000000" points="277.2744,-122 274.2744,-126 253.2744,-126 250.2744,-122 148.7256,-122 148.7256,-86 277.2744,-86 277.2744,-122"/>
<text text-anchor="middle" x="213" y="-99.8" font-family="Times,serif" font-size="14.00" fill="#000000">AppRoutingModule</text>
</g>
<!-- AppRoutingModule&#45;&gt;CarteleraModule -->
<g id="edge6" class="edge">
<title>AppRoutingModule&#45;&gt;CarteleraModule</title>
<path fill="none" stroke="#000000" d="M213,-122.1061C213,-141.3391 213,-169 213,-169 213,-169 452.4129,-169 452.4129,-169"/>
<polygon fill="#000000" stroke="#000000" points="452.413,-172.5001 462.4129,-169 452.4129,-165.5001 452.413,-172.5001"/>
</g>
<!-- MaterialModule -->
<g id="node8" class="node">
<title>MaterialModule</title>
<polygon fill="#8dd3c7" stroke="#000000" points="130.4706,-122 127.4706,-126 106.4706,-126 103.4706,-122 23.5294,-122 23.5294,-86 130.4706,-86 130.4706,-122"/>
<text text-anchor="middle" x="77" y="-99.8" font-family="Times,serif" font-size="14.00" fill="#000000">MaterialModule</text>
</g>
<!-- MaterialModule&#45;&gt;CarteleraModule -->
<g id="edge7" class="edge">
<title>MaterialModule&#45;&gt;CarteleraModule</title>
<path fill="none" stroke="#000000" d="M77,-122.2921C77,-144.2057 77,-178 77,-178 77,-178 452.5936,-178 452.5936,-178"/>
<polygon fill="#000000" stroke="#000000" points="452.5936,-181.5001 462.5936,-178 452.5935,-174.5001 452.5936,-181.5001"/>
</g>
</g>
</svg>
