<?xml version="1.0" encoding="UTF-8" standalone="no"?>
<!DOCTYPE svg PUBLIC "-//W3C//DTD SVG 1.1//EN"
 "http://www.w3.org/Graphics/SVG/1.1/DTD/svg11.dtd">
<!-- Generated by graphviz version 2.40.1 (20161225.0304)
 -->
<!-- Title: dependencies Pages: 1 -->
<svg width="1178pt" height="211pt"
 viewBox="0.00 0.00 1178.00 211.00" xmlns="http://www.w3.org/2000/svg" xmlns:xlink="http://www.w3.org/1999/xlink">
<g id="graph0" class="graph" transform="scale(1 1) rotate(0) translate(4 207)">
<title>dependencies</title>
<polygon fill="#ffffff" stroke="transparent" points="-4,4 -4,-207 1174,-207 1174,4 -4,4"/>
<text text-anchor="start" x="564.0091" y="-42.4" font-family="sans-serif" font-weight="bold" font-size="14.00" fill="#000000">Legend</text>
<polygon fill="#ffffb3" stroke="transparent" points="351,-10 351,-30 371,-30 371,-10 351,-10"/>
<text text-anchor="start" x="374.629" y="-15.4" font-family="sans-serif" font-size="14.00" fill="#000000"> &#160;Declarations</text>
<polygon fill="#8dd3c7" stroke="transparent" points="464,-10 464,-30 484,-30 484,-10 464,-10"/>
<text text-anchor="start" x="487.7251" y="-15.4" font-family="sans-serif" font-size="14.00" fill="#000000"> &#160;Module</text>
<polygon fill="#80b1d3" stroke="transparent" points="550,-10 550,-30 570,-30 570,-10 550,-10"/>
<text text-anchor="start" x="573.7812" y="-15.4" font-family="sans-serif" font-size="14.00" fill="#000000"> &#160;Bootstrap</text>
<polygon fill="#fdb462" stroke="transparent" points="647,-10 647,-30 667,-30 667,-10 647,-10"/>
<text text-anchor="start" x="670.6732" y="-15.4" font-family="sans-serif" font-size="14.00" fill="#000000"> &#160;Providers</text>
<polygon fill="#fb8072" stroke="transparent" points="743,-10 743,-30 763,-30 763,-10 743,-10"/>
<text text-anchor="start" x="766.7258" y="-15.4" font-family="sans-serif" font-size="14.00" fill="#000000"> &#160;Exports</text>
<g id="clust1" class="cluster">
<title>cluster_UsuarioModule</title>
<polygon fill="none" stroke="#000000" stroke-dasharray="1,5" points="8,-70 8,-195 1162,-195 1162,-70 8,-70"/>
</g>
<g id="clust2" class="cluster">
<title>cluster_UsuarioModule_declarations</title>
<polygon fill="none" stroke="#000000" points="293,-78 293,-130 1154,-130 1154,-78 293,-78"/>
</g>
<g id="clust8" class="cluster">
<title>cluster_UsuarioModule_imports</title>
<polygon fill="none" stroke="#000000" points="16,-78 16,-130 285,-130 285,-78 16,-78"/>
</g>
<!-- CartelerasCreadasComponent -->
<g id="node1" class="node">
<title>CartelerasCreadasComponent</title>
<polygon fill="#ffffb3" stroke="#000000" points="1145.6601,-122 962.3399,-122 962.3399,-86 1145.6601,-86 1145.6601,-122"/>
<text text-anchor="middle" x="1054" y="-99.8" font-family="Times,serif" font-size="14.00" fill="#000000">CartelerasCreadasComponent</text>
</g>
<!-- UsuarioModule -->
<g id="node6" class="node">
<title>UsuarioModule</title>
<polygon fill="#8dd3c7" stroke="#000000" points="583.8669,-187 580.8669,-191 559.8669,-191 556.8669,-187 480.1331,-187 480.1331,-151 583.8669,-151 583.8669,-187"/>
<text text-anchor="middle" x="532" y="-164.8" font-family="Times,serif" font-size="14.00" fill="#000000">UsuarioModule</text>
</g>
<!-- CartelerasCreadasComponent&#45;&gt;UsuarioModule -->
<g id="edge1" class="edge">
<title>CartelerasCreadasComponent&#45;&gt;UsuarioModule</title>
<path fill="none" stroke="#000000" d="M1054,-122.2921C1054,-144.2057 1054,-178 1054,-178 1054,-178 593.9598,-178 593.9598,-178"/>
<polygon fill="#000000" stroke="#000000" points="593.9598,-174.5001 583.9598,-178 593.9597,-181.5001 593.9598,-174.5001"/>
</g>
<!-- CartelerasSeguidasComponent -->
<g id="node2" class="node">
<title>CartelerasSeguidasComponent</title>
<polygon fill="#ffffb3" stroke="#000000" points="944.1218,-122 755.8782,-122 755.8782,-86 944.1218,-86 944.1218,-122"/>
<text text-anchor="middle" x="850" y="-99.8" font-family="Times,serif" font-size="14.00" fill="#000000">CartelerasSeguidasComponent</text>
</g>
<!-- CartelerasSeguidasComponent&#45;&gt;UsuarioModule -->
<g id="edge2" class="edge">
<title>CartelerasSeguidasComponent&#45;&gt;UsuarioModule</title>
<path fill="none" stroke="#000000" d="M850,-122.1061C850,-141.3391 850,-169 850,-169 850,-169 594.1551,-169 594.1551,-169"/>
<polygon fill="#000000" stroke="#000000" points="594.1552,-165.5001 584.1551,-169 594.1551,-172.5001 594.1552,-165.5001"/>
</g>
<!-- EditUserComponent -->
<g id="node3" class="node">
<title>EditUserComponent</title>
<polygon fill="#ffffb3" stroke="#000000" points="737.5926,-122 606.4074,-122 606.4074,-86 737.5926,-86 737.5926,-122"/>
<text text-anchor="middle" x="672" y="-99.8" font-family="Times,serif" font-size="14.00" fill="#000000">EditUserComponent</text>
</g>
<!-- EditUserComponent&#45;&gt;UsuarioModule -->
<g id="edge3" class="edge">
<title>EditUserComponent&#45;&gt;UsuarioModule</title>
<path fill="none" stroke="#000000" d="M672,-122.027C672,-138.3976 672,-160 672,-160 672,-160 594.1308,-160 594.1308,-160"/>
<polygon fill="#000000" stroke="#000000" points="594.1309,-156.5001 584.1308,-160 594.1308,-163.5001 594.1309,-156.5001"/>
</g>
<!-- PerfilComponent -->
<g id="node4" class="node">
<title>PerfilComponent</title>
<polygon fill="#ffffb3" stroke="#000000" points="588.4328,-122 475.5672,-122 475.5672,-86 588.4328,-86 588.4328,-122"/>
<text text-anchor="middle" x="532" y="-99.8" font-family="Times,serif" font-size="14.00" fill="#000000">PerfilComponent</text>
</g>
<!-- PerfilComponent&#45;&gt;UsuarioModule -->
<g id="edge4" class="edge">
<title>PerfilComponent&#45;&gt;UsuarioModule</title>
<path fill="none" stroke="#000000" d="M532,-122.1061C532,-122.1061 532,-140.991 532,-140.991"/>
<polygon fill="#000000" stroke="#000000" points="528.5001,-140.9909 532,-150.991 535.5001,-140.991 528.5001,-140.9909"/>
</g>
<!-- PostsCreadosComponent -->
<g id="node5" class="node">
<title>PostsCreadosComponent</title>
<polygon fill="#ffffb3" stroke="#000000" points="457.266,-122 300.734,-122 300.734,-86 457.266,-86 457.266,-122"/>
<text text-anchor="middle" x="379" y="-99.8" font-family="Times,serif" font-size="14.00" fill="#000000">PostsCreadosComponent</text>
</g>
<!-- PostsCreadosComponent&#45;&gt;UsuarioModule -->
<g id="edge5" class="edge">
<title>PostsCreadosComponent&#45;&gt;UsuarioModule</title>
<path fill="none" stroke="#000000" d="M379,-122.027C379,-138.3976 379,-160 379,-160 379,-160 469.774,-160 469.774,-160"/>
<polygon fill="#000000" stroke="#000000" points="469.774,-163.5001 479.774,-160 469.774,-156.5001 469.774,-163.5001"/>
</g>
<!-- AppRoutingModule -->
<g id="node7" class="node">
<title>AppRoutingModule</title>
<polygon fill="#8dd3c7" stroke="#000000" points="277.2744,-122 274.2744,-126 253.2744,-126 250.2744,-122 148.7256,-122 148.7256,-86 277.2744,-86 277.2744,-122"/>
<text text-anchor="middle" x="213" y="-99.8" font-family="Times,serif" font-size="14.00" fill="#000000">AppRoutingModule</text>
</g>
<!-- AppRoutingModule&#45;&gt;UsuarioModule -->
<g id="edge6" class="edge">
<title>AppRoutingModule&#45;&gt;UsuarioModule</title>
<path fill="none" stroke="#000000" d="M213,-122.1061C213,-141.3391 213,-169 213,-169 213,-169 470.0372,-169 470.0372,-169"/>
<polygon fill="#000000" stroke="#000000" points="470.0372,-172.5001 480.0372,-169 470.0371,-165.5001 470.0372,-172.5001"/>
</g>
<!-- MaterialModule -->
<g id="node8" class="node">
<title>MaterialModule</title>
<polygon fill="#8dd3c7" stroke="#000000" points="130.4706,-122 127.4706,-126 106.4706,-126 103.4706,-122 23.5294,-122 23.5294,-86 130.4706,-86 130.4706,-122"/>
<text text-anchor="middle" x="77" y="-99.8" font-family="Times,serif" font-size="14.00" fill="#000000">MaterialModule</text>
</g>
<!-- MaterialModule&#45;&gt;UsuarioModule -->
<g id="edge7" class="edge">
<title>MaterialModule&#45;&gt;UsuarioModule</title>
<path fill="none" stroke="#000000" d="M77,-122.2921C77,-144.2057 77,-178 77,-178 77,-178 469.8057,-178 469.8057,-178"/>
<polygon fill="#000000" stroke="#000000" points="469.8057,-181.5001 479.8057,-178 469.8057,-174.5001 469.8057,-181.5001"/>
</g>
</g>
</svg>
