<?xml version="1.0" encoding="UTF-8" standalone="no"?>
<!DOCTYPE svg PUBLIC "-//W3C//DTD SVG 1.1//EN"
 "http://www.w3.org/Graphics/SVG/1.1/DTD/svg11.dtd">
<!-- Generated by graphviz version 2.40.1 (20161225.0304)
 -->
<!-- Title: dependencies Pages: 1 -->
<svg width="1180pt" height="284pt"
 viewBox="0.00 0.00 1180.00 284.00" xmlns="http://www.w3.org/2000/svg" xmlns:xlink="http://www.w3.org/1999/xlink">
<g id="graph0" class="graph" transform="scale(1 1) rotate(0) translate(4 280)">
<title>dependencies</title>
<polygon fill="#ffffff" stroke="transparent" points="-4,4 -4,-280 1176,-280 1176,4 -4,4"/>
<text text-anchor="start" x="565.0091" y="-42.4" font-family="sans-serif" font-weight="bold" font-size="14.00" fill="#000000">Legend</text>
<polygon fill="#ffffb3" stroke="transparent" points="352,-10 352,-30 372,-30 372,-10 352,-10"/>
<text text-anchor="start" x="375.629" y="-15.4" font-family="sans-serif" font-size="14.00" fill="#000000"> &#160;Declarations</text>
<polygon fill="#8dd3c7" stroke="transparent" points="465,-10 465,-30 485,-30 485,-10 465,-10"/>
<text text-anchor="start" x="488.7251" y="-15.4" font-family="sans-serif" font-size="14.00" fill="#000000"> &#160;Module</text>
<polygon fill="#80b1d3" stroke="transparent" points="551,-10 551,-30 571,-30 571,-10 551,-10"/>
<text text-anchor="start" x="574.7812" y="-15.4" font-family="sans-serif" font-size="14.00" fill="#000000"> &#160;Bootstrap</text>
<polygon fill="#fdb462" stroke="transparent" points="648,-10 648,-30 668,-30 668,-10 648,-10"/>
<text text-anchor="start" x="671.6732" y="-15.4" font-family="sans-serif" font-size="14.00" fill="#000000"> &#160;Providers</text>
<polygon fill="#fb8072" stroke="transparent" points="744,-10 744,-30 764,-30 764,-10 744,-10"/>
<text text-anchor="start" x="767.7258" y="-15.4" font-family="sans-serif" font-size="14.00" fill="#000000"> &#160;Exports</text>
<g id="clust1" class="cluster">
<title>cluster_HomeModule</title>
<polygon fill="none" stroke="#000000" stroke-dasharray="1,5" points="8,-70 8,-268 1164,-268 1164,-70 8,-70"/>
</g>
<g id="clust2" class="cluster">
<title>cluster_HomeModule_declarations</title>
<polygon fill="none" stroke="#000000" points="293,-78 293,-130 1156,-130 1156,-78 293,-78"/>
</g>
<g id="clust8" class="cluster">
<title>cluster_HomeModule_imports</title>
<polygon fill="none" stroke="#000000" points="16,-78 16,-130 285,-130 285,-78 16,-78"/>
</g>
<g id="clust9" class="cluster">
<title>cluster_HomeModule_exports</title>
<polygon fill="none" stroke="#000000" points="473,-208 473,-260 609,-260 609,-208 473,-208"/>
</g>
<!-- CreateCarteleraComponent -->
<g id="node1" class="node">
<title>CreateCarteleraComponent</title>
<polygon fill="#ffffb3" stroke="#000000" points="1147.6615,-122 978.3385,-122 978.3385,-86 1147.6615,-86 1147.6615,-122"/>
<text text-anchor="middle" x="1063" y="-99.8" font-family="Times,serif" font-size="14.00" fill="#000000">CreateCarteleraComponent</text>
</g>
<!-- HomeModule -->
<g id="node6" class="node">
<title>HomeModule</title>
<polygon fill="#8dd3c7" stroke="#000000" points="587.7619,-187 584.7619,-191 563.7619,-191 560.7619,-187 494.2381,-187 494.2381,-151 587.7619,-151 587.7619,-187"/>
<text text-anchor="middle" x="541" y="-164.8" font-family="Times,serif" font-size="14.00" fill="#000000">HomeModule</text>
</g>
<!-- CreateCarteleraComponent&#45;&gt;HomeModule -->
<g id="edge1" class="edge">
<title>CreateCarteleraComponent&#45;&gt;HomeModule</title>
<path fill="none" stroke="#000000" d="M1063,-122.2921C1063,-144.2057 1063,-178 1063,-178 1063,-178 597.7834,-178 597.7834,-178"/>
<polygon fill="#000000" stroke="#000000" points="597.7834,-174.5001 587.7834,-178 597.7834,-181.5001 597.7834,-174.5001"/>
</g>
<!-- DeleteCarteleraComponent -->
<g id="node2" class="node">
<title>DeleteCarteleraComponent</title>
<polygon fill="#ffffb3" stroke="#000000" points="960.6615,-122 791.3385,-122 791.3385,-86 960.6615,-86 960.6615,-122"/>
<text text-anchor="middle" x="876" y="-99.8" font-family="Times,serif" font-size="14.00" fill="#000000">DeleteCarteleraComponent</text>
</g>
<!-- DeleteCarteleraComponent&#45;&gt;HomeModule -->
<g id="edge2" class="edge">
<title>DeleteCarteleraComponent&#45;&gt;HomeModule</title>
<path fill="none" stroke="#000000" d="M876,-122.1061C876,-141.3391 876,-169 876,-169 876,-169 597.9331,-169 597.9331,-169"/>
<polygon fill="#000000" stroke="#000000" points="597.9331,-165.5001 587.9331,-169 597.933,-172.5001 597.9331,-165.5001"/>
</g>
<!-- EditCarteleraComponent -->
<g id="node3" class="node">
<title>EditCarteleraComponent</title>
<polygon fill="#ffffb3" stroke="#000000" points="772.9636,-122 617.0364,-122 617.0364,-86 772.9636,-86 772.9636,-122"/>
<text text-anchor="middle" x="695" y="-99.8" font-family="Times,serif" font-size="14.00" fill="#000000">EditCarteleraComponent</text>
</g>
<!-- EditCarteleraComponent&#45;&gt;HomeModule -->
<g id="edge3" class="edge">
<title>EditCarteleraComponent&#45;&gt;HomeModule</title>
<path fill="none" stroke="#000000" d="M695,-122.027C695,-138.3976 695,-160 695,-160 695,-160 598.0419,-160 598.0419,-160"/>
<polygon fill="#000000" stroke="#000000" points="598.0419,-156.5001 588.0419,-160 598.0418,-163.5001 598.0419,-156.5001"/>
</g>
<!-- HomeComponent -->
<g id="node4" class="node">
<title>HomeComponent</title>
<polygon fill="#ffffb3" stroke="#000000" points="598.5451,-122 483.4549,-122 483.4549,-86 598.5451,-86 598.5451,-122"/>
<text text-anchor="middle" x="541" y="-99.8" font-family="Times,serif" font-size="14.00" fill="#000000">HomeComponent</text>
</g>
<!-- HomeComponent&#45;&gt;HomeModule -->
<g id="edge4" class="edge">
<title>HomeComponent&#45;&gt;HomeModule</title>
<path fill="none" stroke="#000000" d="M541,-122.1061C541,-122.1061 541,-140.991 541,-140.991"/>
<polygon fill="#000000" stroke="#000000" points="537.5001,-140.9909 541,-150.991 544.5001,-140.991 537.5001,-140.9909"/>
</g>
<!-- VerSeguidoresComponent -->
<g id="node5" class="node">
<title>VerSeguidoresComponent</title>
<polygon fill="#ffffb3" stroke="#000000" points="465.0225,-122 300.9775,-122 300.9775,-86 465.0225,-86 465.0225,-122"/>
<text text-anchor="middle" x="383" y="-99.8" font-family="Times,serif" font-size="14.00" fill="#000000">VerSeguidoresComponent</text>
</g>
<!-- VerSeguidoresComponent&#45;&gt;HomeModule -->
<g id="edge5" class="edge">
<title>VerSeguidoresComponent&#45;&gt;HomeModule</title>
<path fill="none" stroke="#000000" d="M383,-122.027C383,-138.3976 383,-160 383,-160 383,-160 484.0226,-160 484.0226,-160"/>
<polygon fill="#000000" stroke="#000000" points="484.0226,-163.5001 494.0226,-160 484.0225,-156.5001 484.0226,-163.5001"/>
</g>
<!-- HomeComponent  -->
<g id="node9" class="node">
<title>HomeComponent </title>
<polygon fill="#fb8072" stroke="#000000" points="600.5442,-252 481.4558,-252 481.4558,-216 600.5442,-216 600.5442,-252"/>
<text text-anchor="middle" x="541" y="-229.8" font-family="Times,serif" font-size="14.00" fill="#000000">HomeComponent </text>
</g>
<!-- HomeModule&#45;&gt;HomeComponent  -->
<g id="edge8" class="edge">
<title>HomeModule&#45;&gt;HomeComponent </title>
<path fill="none" stroke="#000000" stroke-dasharray="5,2" d="M541,-187.1061C541,-187.1061 541,-205.991 541,-205.991"/>
<polygon fill="#000000" stroke="#000000" points="537.5001,-205.9909 541,-215.991 544.5001,-205.991 537.5001,-205.9909"/>
</g>
<!-- AppRoutingModule -->
<g id="node7" class="node">
<title>AppRoutingModule</title>
<polygon fill="#8dd3c7" stroke="#000000" points="277.2744,-122 274.2744,-126 253.2744,-126 250.2744,-122 148.7256,-122 148.7256,-86 277.2744,-86 277.2744,-122"/>
<text text-anchor="middle" x="213" y="-99.8" font-family="Times,serif" font-size="14.00" fill="#000000">AppRoutingModule</text>
</g>
<!-- AppRoutingModule&#45;&gt;HomeModule -->
<g id="edge6" class="edge">
<title>AppRoutingModule&#45;&gt;HomeModule</title>
<path fill="none" stroke="#000000" d="M213,-122.1061C213,-141.3391 213,-169 213,-169 213,-169 484.0056,-169 484.0056,-169"/>
<polygon fill="#000000" stroke="#000000" points="484.0056,-172.5001 494.0056,-169 484.0056,-165.5001 484.0056,-172.5001"/>
</g>
<!-- MaterialModule -->
<g id="node8" class="node">
<title>MaterialModule</title>
<polygon fill="#8dd3c7" stroke="#000000" points="130.4706,-122 127.4706,-126 106.4706,-126 103.4706,-122 23.5294,-122 23.5294,-86 130.4706,-86 130.4706,-122"/>
<text text-anchor="middle" x="77" y="-99.8" font-family="Times,serif" font-size="14.00" fill="#000000">MaterialModule</text>
</g>
<!-- MaterialModule&#45;&gt;HomeModule -->
<g id="edge7" class="edge">
<title>MaterialModule&#45;&gt;HomeModule</title>
<path fill="none" stroke="#000000" d="M77,-122.2921C77,-144.2057 77,-178 77,-178 77,-178 483.9557,-178 483.9557,-178"/>
<polygon fill="#000000" stroke="#000000" points="483.9558,-181.5001 493.9557,-178 483.9557,-174.5001 483.9558,-181.5001"/>
</g>
</g>
</svg>
