<?xml version="1.0" encoding="UTF-8" standalone="no"?>
<!DOCTYPE svg PUBLIC "-//W3C//DTD SVG 1.1//EN"
 "http://www.w3.org/Graphics/SVG/1.1/DTD/svg11.dtd">
<!-- Generated by graphviz version 2.40.1 (20161225.0304)
 -->
<!-- Title: dependencies Pages: 1 -->
<svg width="2210pt" height="284pt"
 viewBox="0.00 0.00 2210.00 284.00" xmlns="http://www.w3.org/2000/svg" xmlns:xlink="http://www.w3.org/1999/xlink">
<g id="graph0" class="graph" transform="scale(1 1) rotate(0) translate(4 280)">
<title>dependencies</title>
<polygon fill="#ffffff" stroke="transparent" points="-4,4 -4,-280 2206,-280 2206,4 -4,4"/>
<text text-anchor="start" x="1080.0091" y="-42.4" font-family="sans-serif" font-weight="bold" font-size="14.00" fill="#000000">Legend</text>
<polygon fill="#ffffb3" stroke="transparent" points="867,-10 867,-30 887,-30 887,-10 867,-10"/>
<text text-anchor="start" x="890.629" y="-15.4" font-family="sans-serif" font-size="14.00" fill="#000000"> &#160;Declarations</text>
<polygon fill="#8dd3c7" stroke="transparent" points="980,-10 980,-30 1000,-30 1000,-10 980,-10"/>
<text text-anchor="start" x="1003.7251" y="-15.4" font-family="sans-serif" font-size="14.00" fill="#000000"> &#160;Module</text>
<polygon fill="#80b1d3" stroke="transparent" points="1066,-10 1066,-30 1086,-30 1086,-10 1066,-10"/>
<text text-anchor="start" x="1089.7812" y="-15.4" font-family="sans-serif" font-size="14.00" fill="#000000"> &#160;Bootstrap</text>
<polygon fill="#fdb462" stroke="transparent" points="1163,-10 1163,-30 1183,-30 1183,-10 1163,-10"/>
<text text-anchor="start" x="1186.6732" y="-15.4" font-family="sans-serif" font-size="14.00" fill="#000000"> &#160;Providers</text>
<polygon fill="#fb8072" stroke="transparent" points="1259,-10 1259,-30 1279,-30 1279,-10 1259,-10"/>
<text text-anchor="start" x="1282.7258" y="-15.4" font-family="sans-serif" font-size="14.00" fill="#000000"> &#160;Exports</text>
<g id="clust1" class="cluster">
<title>cluster_AppModule</title>
<polygon fill="none" stroke="#000000" stroke-dasharray="1,5" points="8,-70 8,-268 2194,-268 2194,-70 8,-70"/>
</g>
<g id="clust2" class="cluster">
<title>cluster_AppModule_declarations</title>
<polygon fill="none" stroke="#000000" points="1748,-78 1748,-130 2186,-130 2186,-78 1748,-78"/>
</g>
<g id="clust6" class="cluster">
<title>cluster_AppModule_imports</title>
<polygon fill="none" stroke="#000000" points="848,-78 848,-130 1740,-130 1740,-78 848,-78"/>
</g>
<g id="clust8" class="cluster">
<title>cluster_AppModule_bootstrap</title>
<polygon fill="none" stroke="#000000" points="1088,-208 1088,-260 1212,-260 1212,-208 1088,-208"/>
</g>
<g id="clust9" class="cluster">
<title>cluster_AppModule_providers</title>
<polygon fill="none" stroke="#000000" points="16,-78 16,-130 840,-130 840,-78 16,-78"/>
</g>
<!-- AppComponent -->
<g id="node1" class="node">
<title>AppComponent</title>
<polygon fill="#ffffb3" stroke="#000000" points="2177.9399,-122 2072.0601,-122 2072.0601,-86 2177.9399,-86 2177.9399,-122"/>
<text text-anchor="middle" x="2125" y="-99.8" font-family="Times,serif" font-size="14.00" fill="#000000">AppComponent</text>
</g>
<!-- AppModule -->
<g id="node4" class="node">
<title>AppModule</title>
<polygon fill="#8dd3c7" stroke="#000000" points="1191.6571,-187 1188.6571,-191 1167.6571,-191 1164.6571,-187 1108.3429,-187 1108.3429,-151 1191.6571,-151 1191.6571,-187"/>
<text text-anchor="middle" x="1150" y="-164.8" font-family="Times,serif" font-size="14.00" fill="#000000">AppModule</text>
</g>
<!-- AppComponent&#45;&gt;AppModule -->
<g id="edge1" class="edge">
<title>AppComponent&#45;&gt;AppModule</title>
<path fill="none" stroke="#000000" d="M2125,-122.3228C2125,-145.6602 2125,-183 2125,-183 2125,-183 1201.8945,-183 1201.8945,-183"/>
<polygon fill="#000000" stroke="#000000" points="1201.8946,-179.5001 1191.8945,-183 1201.8945,-186.5001 1201.8946,-179.5001"/>
</g>
<!-- LoginComponent -->
<g id="node2" class="node">
<title>LoginComponent</title>
<polygon fill="#ffffb3" stroke="#000000" points="2054.2758,-122 1939.7242,-122 1939.7242,-86 2054.2758,-86 2054.2758,-122"/>
<text text-anchor="middle" x="1997" y="-99.8" font-family="Times,serif" font-size="14.00" fill="#000000">LoginComponent</text>
</g>
<!-- LoginComponent&#45;&gt;AppModule -->
<g id="edge2" class="edge">
<title>LoginComponent&#45;&gt;AppModule</title>
<path fill="none" stroke="#000000" d="M1997,-122.2921C1997,-144.2057 1997,-178 1997,-178 1997,-178 1201.714,-178 1201.714,-178"/>
<polygon fill="#000000" stroke="#000000" points="1201.714,-174.5001 1191.714,-178 1201.7139,-181.5001 1201.714,-174.5001"/>
</g>
<!-- PageNotFoundComponent -->
<g id="node3" class="node">
<title>PageNotFoundComponent</title>
<polygon fill="#ffffb3" stroke="#000000" points="1921.8243,-122 1756.1757,-122 1756.1757,-86 1921.8243,-86 1921.8243,-122"/>
<text text-anchor="middle" x="1839" y="-99.8" font-family="Times,serif" font-size="14.00" fill="#000000">PageNotFoundComponent</text>
</g>
<!-- PageNotFoundComponent&#45;&gt;AppModule -->
<g id="edge3" class="edge">
<title>PageNotFoundComponent&#45;&gt;AppModule</title>
<path fill="none" stroke="#000000" d="M1839,-122.0267C1839,-142.7672 1839,-174 1839,-174 1839,-174 1201.8053,-174 1201.8053,-174"/>
<polygon fill="#000000" stroke="#000000" points="1201.8053,-170.5001 1191.8053,-174 1201.8053,-177.5001 1201.8053,-170.5001"/>
</g>
<!-- AppComponent  -->
<g id="node12" class="node">
<title>AppComponent </title>
<polygon fill="#80b1d3" stroke="#000000" points="1204.439,-252 1095.561,-252 1095.561,-216 1204.439,-216 1204.439,-252"/>
<text text-anchor="middle" x="1150" y="-229.8" font-family="Times,serif" font-size="14.00" fill="#000000">AppComponent </text>
</g>
<!-- AppModule&#45;&gt;AppComponent  -->
<g id="edge11" class="edge">
<title>AppModule&#45;&gt;AppComponent </title>
<path fill="none" stroke="#000000" stroke-dasharray="1,5" d="M1150,-187.1061C1150,-187.1061 1150,-205.991 1150,-205.991"/>
<polygon fill="#000000" stroke="#000000" points="1146.5001,-205.9909 1150,-215.991 1153.5001,-205.991 1146.5001,-205.9909"/>
</g>
<!-- AppRoutingModule -->
<g id="node5" class="node">
<title>AppRoutingModule</title>
<polygon fill="#8dd3c7" stroke="#000000" points="1732.2744,-122 1729.2744,-126 1708.2744,-126 1705.2744,-122 1603.7256,-122 1603.7256,-86 1732.2744,-86 1732.2744,-122"/>
<text text-anchor="middle" x="1668" y="-99.8" font-family="Times,serif" font-size="14.00" fill="#000000">AppRoutingModule</text>
</g>
<!-- AppRoutingModule&#45;&gt;AppModule -->
<g id="edge4" class="edge">
<title>AppRoutingModule&#45;&gt;AppModule</title>
<path fill="none" stroke="#000000" d="M1668,-122.1061C1668,-141.3391 1668,-169 1668,-169 1668,-169 1201.9513,-169 1201.9513,-169"/>
<polygon fill="#000000" stroke="#000000" points="1201.9514,-165.5001 1191.9513,-169 1201.9513,-172.5001 1201.9514,-165.5001"/>
</g>
<!-- CarteleraModule -->
<g id="node6" class="node">
<title>CarteleraModule</title>
<polygon fill="#8dd3c7" stroke="#000000" points="1585.3473,-122 1582.3473,-126 1561.3473,-126 1558.3473,-122 1474.6527,-122 1474.6527,-86 1585.3473,-86 1585.3473,-122"/>
<text text-anchor="middle" x="1530" y="-99.8" font-family="Times,serif" font-size="14.00" fill="#000000">CarteleraModule</text>
</g>
<!-- CarteleraModule&#45;&gt;AppModule -->
<g id="edge5" class="edge">
<title>CarteleraModule&#45;&gt;AppModule</title>
<path fill="none" stroke="#000000" d="M1530,-122.302C1530,-140.2699 1530,-165 1530,-165 1530,-165 1201.7537,-165 1201.7537,-165"/>
<polygon fill="#000000" stroke="#000000" points="1201.7537,-161.5001 1191.7537,-165 1201.7536,-168.5001 1201.7537,-161.5001"/>
</g>
<!-- HomeModule -->
<g id="node7" class="node">
<title>HomeModule</title>
<polygon fill="#8dd3c7" stroke="#000000" points="1456.7619,-122 1453.7619,-126 1432.7619,-126 1429.7619,-122 1363.2381,-122 1363.2381,-86 1456.7619,-86 1456.7619,-122"/>
<text text-anchor="middle" x="1410" y="-99.8" font-family="Times,serif" font-size="14.00" fill="#000000">HomeModule</text>
</g>
<!-- HomeModule&#45;&gt;AppModule -->
<g id="edge6" class="edge">
<title>HomeModule&#45;&gt;AppModule</title>
<path fill="none" stroke="#000000" d="M1410,-122.027C1410,-138.3976 1410,-160 1410,-160 1410,-160 1201.7735,-160 1201.7735,-160"/>
<polygon fill="#000000" stroke="#000000" points="1201.7735,-156.5001 1191.7735,-160 1201.7735,-163.5001 1201.7735,-156.5001"/>
</g>
<!-- MaterialModule -->
<g id="node8" class="node">
<title>MaterialModule</title>
<polygon fill="#8dd3c7" stroke="#000000" points="1345.4706,-122 1342.4706,-126 1321.4706,-126 1318.4706,-122 1238.5294,-122 1238.5294,-86 1345.4706,-86 1345.4706,-122"/>
<text text-anchor="middle" x="1292" y="-99.8" font-family="Times,serif" font-size="14.00" fill="#000000">MaterialModule</text>
</g>
<!-- MaterialModule&#45;&gt;AppModule -->
<g id="edge7" class="edge">
<title>MaterialModule&#45;&gt;AppModule</title>
<path fill="none" stroke="#000000" d="M1292,-122.1871C1292,-137.1824 1292,-156 1292,-156 1292,-156 1201.8367,-156 1201.8367,-156"/>
<polygon fill="#000000" stroke="#000000" points="1201.8367,-152.5001 1191.8367,-156 1201.8366,-159.5001 1201.8367,-152.5001"/>
</g>
<!-- NotificacionesModule -->
<g id="node9" class="node">
<title>NotificacionesModule</title>
<polygon fill="#8dd3c7" stroke="#000000" points="1220.6825,-122 1217.6825,-126 1196.6825,-126 1193.6825,-122 1079.3175,-122 1079.3175,-86 1220.6825,-86 1220.6825,-122"/>
<text text-anchor="middle" x="1150" y="-99.8" font-family="Times,serif" font-size="14.00" fill="#000000">NotificacionesModule</text>
</g>
<!-- NotificacionesModule&#45;&gt;AppModule -->
<g id="edge8" class="edge">
<title>NotificacionesModule&#45;&gt;AppModule</title>
<path fill="none" stroke="#000000" d="M1150,-122.1061C1150,-122.1061 1150,-140.991 1150,-140.991"/>
<polygon fill="#000000" stroke="#000000" points="1146.5001,-140.9909 1150,-150.991 1153.5001,-140.991 1146.5001,-140.9909"/>
</g>
<!-- PostModule -->
<g id="node10" class="node">
<title>PostModule</title>
<polygon fill="#8dd3c7" stroke="#000000" points="1061.6683,-122 1058.6683,-126 1037.6683,-126 1034.6683,-122 978.3317,-122 978.3317,-86 1061.6683,-86 1061.6683,-122"/>
<text text-anchor="middle" x="1020" y="-99.8" font-family="Times,serif" font-size="14.00" fill="#000000">PostModule</text>
</g>
<!-- PostModule&#45;&gt;AppModule -->
<g id="edge9" class="edge">
<title>PostModule&#45;&gt;AppModule</title>
<path fill="none" stroke="#000000" d="M1020,-122.1871C1020,-137.1824 1020,-156 1020,-156 1020,-156 1098.1516,-156 1098.1516,-156"/>
<polygon fill="#000000" stroke="#000000" points="1098.1516,-159.5001 1108.1516,-156 1098.1516,-152.5001 1098.1516,-159.5001"/>
</g>
<!-- UsuarioModule -->
<g id="node11" class="node">
<title>UsuarioModule</title>
<polygon fill="#8dd3c7" stroke="#000000" points="959.8669,-122 956.8669,-126 935.8669,-126 932.8669,-122 856.1331,-122 856.1331,-86 959.8669,-86 959.8669,-122"/>
<text text-anchor="middle" x="908" y="-99.8" font-family="Times,serif" font-size="14.00" fill="#000000">UsuarioModule</text>
</g>
<!-- UsuarioModule&#45;&gt;AppModule -->
<g id="edge10" class="edge">
<title>UsuarioModule&#45;&gt;AppModule</title>
<path fill="none" stroke="#000000" d="M908,-122.027C908,-138.3976 908,-160 908,-160 908,-160 1098.1231,-160 1098.1231,-160"/>
<polygon fill="#000000" stroke="#000000" points="1098.1231,-163.5001 1108.1231,-160 1098.1231,-156.5001 1098.1231,-163.5001"/>
</g>
<!-- AuthInterceptor -->
<g id="node13" class="node">
<title>AuthInterceptor</title>
<ellipse fill="#fdb462" stroke="#000000" cx="759" cy="-104" rx="72.9121" ry="18"/>
<text text-anchor="middle" x="759" y="-99.8" font-family="Times,serif" font-size="14.00" fill="#000000">AuthInterceptor</text>
</g>
<!-- AuthInterceptor&#45;&gt;AppModule -->
<g id="edge12" class="edge">
<title>AuthInterceptor&#45;&gt;AppModule</title>
<path fill="none" stroke="#000000" d="M759,-122.302C759,-140.2699 759,-165 759,-165 759,-165 1098.1562,-165 1098.1562,-165"/>
<polygon fill="#000000" stroke="#000000" points="1098.1562,-168.5001 1108.1562,-165 1098.1561,-161.5001 1098.1562,-168.5001"/>
</g>
<!-- AuthService -->
<g id="node14" class="node">
<title>AuthService</title>
<ellipse fill="#fdb462" stroke="#000000" cx="609" cy="-104" rx="59.1083" ry="18"/>
<text text-anchor="middle" x="609" y="-99.8" font-family="Times,serif" font-size="14.00" fill="#000000">AuthService</text>
</g>
<!-- AuthService&#45;&gt;AppModule -->
<g id="edge13" class="edge">
<title>AuthService&#45;&gt;AppModule</title>
<path fill="none" stroke="#000000" d="M609,-122.1061C609,-141.3391 609,-169 609,-169 609,-169 1097.9988,-169 1097.9988,-169"/>
<polygon fill="#000000" stroke="#000000" points="1097.9988,-172.5001 1107.9988,-169 1097.9988,-165.5001 1097.9988,-172.5001"/>
</g>
<!-- CarteleraService -->
<g id="node15" class="node">
<title>CarteleraService</title>
<ellipse fill="#fdb462" stroke="#000000" cx="456" cy="-104" rx="75.252" ry="18"/>
<text text-anchor="middle" x="456" y="-99.8" font-family="Times,serif" font-size="14.00" fill="#000000">CarteleraService</text>
</g>
<!-- CarteleraService&#45;&gt;AppModule -->
<g id="edge14" class="edge">
<title>CarteleraService&#45;&gt;AppModule</title>
<path fill="none" stroke="#000000" d="M456,-122.0267C456,-142.7672 456,-174 456,-174 456,-174 1098.1501,-174 1098.1501,-174"/>
<polygon fill="#000000" stroke="#000000" points="1098.1501,-177.5001 1108.1501,-174 1098.15,-170.5001 1098.1501,-177.5001"/>
</g>
<!-- LocalStorageService -->
<g id="node16" class="node">
<title>LocalStorageService</title>
<ellipse fill="#fdb462" stroke="#000000" cx="271" cy="-104" rx="91.4481" ry="18"/>
<text text-anchor="middle" x="271" y="-99.8" font-family="Times,serif" font-size="14.00" fill="#000000">LocalStorageService</text>
</g>
<!-- LocalStorageService&#45;&gt;AppModule -->
<g id="edge15" class="edge">
<title>LocalStorageService&#45;&gt;AppModule</title>
<path fill="none" stroke="#000000" d="M271,-122.2921C271,-144.2057 271,-178 271,-178 271,-178 1098.1953,-178 1098.1953,-178"/>
<polygon fill="#000000" stroke="#000000" points="1098.1954,-181.5001 1108.1953,-178 1098.1953,-174.5001 1098.1954,-181.5001"/>
</g>
<!-- ToasterService -->
<g id="node17" class="node">
<title>ToasterService</title>
<ellipse fill="#fdb462" stroke="#000000" cx="93" cy="-104" rx="68.8946" ry="18"/>
<text text-anchor="middle" x="93" y="-99.8" font-family="Times,serif" font-size="14.00" fill="#000000">ToasterService</text>
</g>
<!-- ToasterService&#45;&gt;AppModule -->
<g id="edge16" class="edge">
<title>ToasterService&#45;&gt;AppModule</title>
<path fill="none" stroke="#000000" d="M93,-122.3228C93,-145.6602 93,-183 93,-183 93,-183 1098.2388,-183 1098.2388,-183"/>
<polygon fill="#000000" stroke="#000000" points="1098.2388,-186.5001 1108.2388,-183 1098.2388,-179.5001 1098.2388,-186.5001"/>
</g>
</g>
</svg>
