<?xml version="1.0" encoding="UTF-8" standalone="no"?>
<!DOCTYPE svg PUBLIC "-//W3C//DTD SVG 1.1//EN"
 "http://www.w3.org/Graphics/SVG/1.1/DTD/svg11.dtd">
<!-- Generated by graphviz version 2.40.1 (20161225.0304)
 -->
<!-- Title: dependencies Pages: 1 -->
<svg width="2051pt" height="284pt"
 viewBox="0.00 0.00 2051.00 284.00" xmlns="http://www.w3.org/2000/svg" xmlns:xlink="http://www.w3.org/1999/xlink">
<g id="graph0" class="graph" transform="scale(1 1) rotate(0) translate(4 280)">
<title>dependencies</title>
<polygon fill="#ffffff" stroke="transparent" points="-4,4 -4,-280 2047,-280 2047,4 -4,4"/>
<text text-anchor="start" x="1000.5091" y="-42.4" font-family="sans-serif" font-weight="bold" font-size="14.00" fill="#000000">Legend</text>
<polygon fill="#ffffb3" stroke="transparent" points="787.5,-10 787.5,-30 807.5,-30 807.5,-10 787.5,-10"/>
<text text-anchor="start" x="811.129" y="-15.4" font-family="sans-serif" font-size="14.00" fill="#000000"> &#160;Declarations</text>
<polygon fill="#8dd3c7" stroke="transparent" points="900.5,-10 900.5,-30 920.5,-30 920.5,-10 900.5,-10"/>
<text text-anchor="start" x="924.2251" y="-15.4" font-family="sans-serif" font-size="14.00" fill="#000000"> &#160;Module</text>
<polygon fill="#80b1d3" stroke="transparent" points="986.5,-10 986.5,-30 1006.5,-30 1006.5,-10 986.5,-10"/>
<text text-anchor="start" x="1010.2812" y="-15.4" font-family="sans-serif" font-size="14.00" fill="#000000"> &#160;Bootstrap</text>
<polygon fill="#fdb462" stroke="transparent" points="1083.5,-10 1083.5,-30 1103.5,-30 1103.5,-10 1083.5,-10"/>
<text text-anchor="start" x="1107.1732" y="-15.4" font-family="sans-serif" font-size="14.00" fill="#000000"> &#160;Providers</text>
<polygon fill="#fb8072" stroke="transparent" points="1179.5,-10 1179.5,-30 1199.5,-30 1199.5,-10 1179.5,-10"/>
<text text-anchor="start" x="1203.2258" y="-15.4" font-family="sans-serif" font-size="14.00" fill="#000000"> &#160;Exports</text>
<g id="clust1" class="cluster">
<title>cluster_AppModule</title>
<polygon fill="none" stroke="#000000" stroke-dasharray="1,5" points="8,-70 8,-268 2035,-268 2035,-70 8,-70"/>
</g>
<g id="clust2" class="cluster">
<title>cluster_AppModule_declarations</title>
<polygon fill="none" stroke="#000000" points="1589,-78 1589,-130 2027,-130 2027,-78 1589,-78"/>
</g>
<g id="clust6" class="cluster">
<title>cluster_AppModule_imports</title>
<polygon fill="none" stroke="#000000" points="848,-78 848,-130 1581,-130 1581,-78 848,-78"/>
</g>
<g id="clust8" class="cluster">
<title>cluster_AppModule_bootstrap</title>
<polygon fill="none" stroke="#000000" points="1014,-208 1014,-260 1138,-260 1138,-208 1014,-208"/>
</g>
<g id="clust9" class="cluster">
<title>cluster_AppModule_providers</title>
<polygon fill="none" stroke="#000000" points="16,-78 16,-130 840,-130 840,-78 16,-78"/>
</g>
<!-- AppComponent -->
<g id="node1" class="node">
<title>AppComponent</title>
<polygon fill="#ffffb3" stroke="#000000" points="2018.9399,-122 1913.0601,-122 1913.0601,-86 2018.9399,-86 2018.9399,-122"/>
<text text-anchor="middle" x="1966" y="-99.8" font-family="Times,serif" font-size="14.00" fill="#000000">AppComponent</text>
</g>
<!-- AppModule -->
<g id="node4" class="node">
<title>AppModule</title>
<polygon fill="#8dd3c7" stroke="#000000" points="1117.6571,-187 1114.6571,-191 1093.6571,-191 1090.6571,-187 1034.3429,-187 1034.3429,-151 1117.6571,-151 1117.6571,-187"/>
<text text-anchor="middle" x="1076" y="-164.8" font-family="Times,serif" font-size="14.00" fill="#000000">AppModule</text>
</g>
<!-- AppComponent&#45;&gt;AppModule -->
<g id="edge1" class="edge">
<title>AppComponent&#45;&gt;AppModule</title>
<path fill="none" stroke="#000000" d="M1966,-122.0908C1966,-145.1328 1966,-182 1966,-182 1966,-182 1127.7328,-182 1127.7328,-182"/>
<polygon fill="#000000" stroke="#000000" points="1127.7329,-178.5001 1117.7328,-182 1127.7328,-185.5001 1127.7329,-178.5001"/>
</g>
<!-- LoginComponent -->
<g id="node2" class="node">
<title>LoginComponent</title>
<polygon fill="#ffffb3" stroke="#000000" points="1895.2758,-122 1780.7242,-122 1780.7242,-86 1895.2758,-86 1895.2758,-122"/>
<text text-anchor="middle" x="1838" y="-99.8" font-family="Times,serif" font-size="14.00" fill="#000000">LoginComponent</text>
</g>
<!-- LoginComponent&#45;&gt;AppModule -->
<g id="edge2" class="edge">
<title>LoginComponent&#45;&gt;AppModule</title>
<path fill="none" stroke="#000000" d="M1838,-122.0449C1838,-143.6623 1838,-177 1838,-177 1838,-177 1127.7813,-177 1127.7813,-177"/>
<polygon fill="#000000" stroke="#000000" points="1127.7813,-173.5001 1117.7813,-177 1127.7813,-180.5001 1127.7813,-173.5001"/>
</g>
<!-- PageNotFoundComponent -->
<g id="node3" class="node">
<title>PageNotFoundComponent</title>
<polygon fill="#ffffb3" stroke="#000000" points="1762.8243,-122 1597.1757,-122 1597.1757,-86 1762.8243,-86 1762.8243,-122"/>
<text text-anchor="middle" x="1680" y="-99.8" font-family="Times,serif" font-size="14.00" fill="#000000">PageNotFoundComponent</text>
</g>
<!-- PageNotFoundComponent&#45;&gt;AppModule -->
<g id="edge3" class="edge">
<title>PageNotFoundComponent&#45;&gt;AppModule</title>
<path fill="none" stroke="#000000" d="M1680,-122.2228C1680,-142.3652 1680,-172 1680,-172 1680,-172 1127.9926,-172 1127.9926,-172"/>
<polygon fill="#000000" stroke="#000000" points="1127.9926,-168.5001 1117.9926,-172 1127.9925,-175.5001 1127.9926,-168.5001"/>
</g>
<!-- AppComponent  -->
<g id="node11" class="node">
<title>AppComponent </title>
<polygon fill="#80b1d3" stroke="#000000" points="1130.439,-252 1021.561,-252 1021.561,-216 1130.439,-216 1130.439,-252"/>
<text text-anchor="middle" x="1076" y="-229.8" font-family="Times,serif" font-size="14.00" fill="#000000">AppComponent </text>
</g>
<!-- AppModule&#45;&gt;AppComponent  -->
<g id="edge10" class="edge">
<title>AppModule&#45;&gt;AppComponent </title>
<path fill="none" stroke="#000000" stroke-dasharray="1,5" d="M1076,-187.1061C1076,-187.1061 1076,-205.991 1076,-205.991"/>
<polygon fill="#000000" stroke="#000000" points="1072.5001,-205.9909 1076,-215.991 1079.5001,-205.991 1072.5001,-205.9909"/>
</g>
<!-- AppRoutingModule -->
<g id="node5" class="node">
<title>AppRoutingModule</title>
<polygon fill="#8dd3c7" stroke="#000000" points="1573.2744,-122 1570.2744,-126 1549.2744,-126 1546.2744,-122 1444.7256,-122 1444.7256,-86 1573.2744,-86 1573.2744,-122"/>
<text text-anchor="middle" x="1509" y="-99.8" font-family="Times,serif" font-size="14.00" fill="#000000">AppRoutingModule</text>
</g>
<!-- AppRoutingModule&#45;&gt;AppModule -->
<g id="edge4" class="edge">
<title>AppRoutingModule&#45;&gt;AppModule</title>
<path fill="none" stroke="#000000" d="M1509,-122.2222C1509,-140.8285 1509,-167 1509,-167 1509,-167 1127.9113,-167 1127.9113,-167"/>
<polygon fill="#000000" stroke="#000000" points="1127.9113,-163.5001 1117.9113,-167 1127.9113,-170.5001 1127.9113,-163.5001"/>
</g>
<!-- CarteleraModule -->
<g id="node6" class="node">
<title>CarteleraModule</title>
<polygon fill="#8dd3c7" stroke="#000000" points="1426.3473,-122 1423.3473,-126 1402.3473,-126 1399.3473,-122 1315.6527,-122 1315.6527,-86 1426.3473,-86 1426.3473,-122"/>
<text text-anchor="middle" x="1371" y="-99.8" font-family="Times,serif" font-size="14.00" fill="#000000">CarteleraModule</text>
</g>
<!-- CarteleraModule&#45;&gt;AppModule -->
<g id="edge5" class="edge">
<title>CarteleraModule&#45;&gt;AppModule</title>
<path fill="none" stroke="#000000" d="M1371,-122.0336C1371,-139.0597 1371,-162 1371,-162 1371,-162 1127.953,-162 1127.953,-162"/>
<polygon fill="#000000" stroke="#000000" points="1127.9531,-158.5001 1117.953,-162 1127.953,-165.5001 1127.9531,-158.5001"/>
</g>
<!-- HomeModule -->
<g id="node7" class="node">
<title>HomeModule</title>
<polygon fill="#8dd3c7" stroke="#000000" points="1297.7619,-122 1294.7619,-126 1273.7619,-126 1270.7619,-122 1204.2381,-122 1204.2381,-86 1297.7619,-86 1297.7619,-122"/>
<text text-anchor="middle" x="1251" y="-99.8" font-family="Times,serif" font-size="14.00" fill="#000000">HomeModule</text>
</g>
<!-- HomeModule&#45;&gt;AppModule -->
<g id="edge6" class="edge">
<title>HomeModule&#45;&gt;AppModule</title>
<path fill="none" stroke="#000000" d="M1251,-122.2396C1251,-137.5706 1251,-157 1251,-157 1251,-157 1127.9169,-157 1127.9169,-157"/>
<polygon fill="#000000" stroke="#000000" points="1127.9169,-153.5001 1117.9169,-157 1127.9168,-160.5001 1127.9169,-153.5001"/>
</g>
<!-- MaterialModule -->
<g id="node8" class="node">
<title>MaterialModule</title>
<polygon fill="#8dd3c7" stroke="#000000" points="1186.4706,-122 1183.4706,-126 1162.4706,-126 1159.4706,-122 1079.5294,-122 1079.5294,-86 1186.4706,-86 1186.4706,-122"/>
<text text-anchor="middle" x="1133" y="-99.8" font-family="Times,serif" font-size="14.00" fill="#000000">MaterialModule</text>
</g>
<!-- MaterialModule&#45;&gt;AppModule -->
<g id="edge7" class="edge">
<title>MaterialModule&#45;&gt;AppModule</title>
<path fill="none" stroke="#000000" d="M1098.6714,-122.1061C1098.6714,-122.1061 1098.6714,-140.991 1098.6714,-140.991"/>
<polygon fill="#000000" stroke="#000000" points="1095.1715,-140.9909 1098.6714,-150.991 1102.1715,-140.991 1095.1715,-140.9909"/>
</g>
<!-- PostModule -->
<g id="node9" class="node">
<title>PostModule</title>
<polygon fill="#8dd3c7" stroke="#000000" points="1061.6683,-122 1058.6683,-126 1037.6683,-126 1034.6683,-122 978.3317,-122 978.3317,-86 1061.6683,-86 1061.6683,-122"/>
<text text-anchor="middle" x="1020" y="-99.8" font-family="Times,serif" font-size="14.00" fill="#000000">PostModule</text>
</g>
<!-- PostModule&#45;&gt;AppModule -->
<g id="edge8" class="edge">
<title>PostModule&#45;&gt;AppModule</title>
<path fill="none" stroke="#000000" d="M1048.0028,-122.1061C1048.0028,-122.1061 1048.0028,-140.991 1048.0028,-140.991"/>
<polygon fill="#000000" stroke="#000000" points="1044.5029,-140.9909 1048.0028,-150.991 1051.5029,-140.991 1044.5029,-140.9909"/>
</g>
<!-- UsuarioModule -->
<g id="node10" class="node">
<title>UsuarioModule</title>
<polygon fill="#8dd3c7" stroke="#000000" points="959.8669,-122 956.8669,-126 935.8669,-126 932.8669,-122 856.1331,-122 856.1331,-86 959.8669,-86 959.8669,-122"/>
<text text-anchor="middle" x="908" y="-99.8" font-family="Times,serif" font-size="14.00" fill="#000000">UsuarioModule</text>
</g>
<!-- UsuarioModule&#45;&gt;AppModule -->
<g id="edge9" class="edge">
<title>UsuarioModule&#45;&gt;AppModule</title>
<path fill="none" stroke="#000000" d="M908,-122.2396C908,-137.5706 908,-157 908,-157 908,-157 1024.0399,-157 1024.0399,-157"/>
<polygon fill="#000000" stroke="#000000" points="1024.0399,-160.5001 1034.0399,-157 1024.0398,-153.5001 1024.0399,-160.5001"/>
</g>
<!-- AuthInterceptor -->
<g id="node12" class="node">
<title>AuthInterceptor</title>
<ellipse fill="#fdb462" stroke="#000000" cx="759" cy="-104" rx="72.9121" ry="18"/>
<text text-anchor="middle" x="759" y="-99.8" font-family="Times,serif" font-size="14.00" fill="#000000">AuthInterceptor</text>
</g>
<!-- AuthInterceptor&#45;&gt;AppModule -->
<g id="edge11" class="edge">
<title>AuthInterceptor&#45;&gt;AppModule</title>
<path fill="none" stroke="#000000" d="M759,-122.0336C759,-139.0597 759,-162 759,-162 759,-162 1024.2318,-162 1024.2318,-162"/>
<polygon fill="#000000" stroke="#000000" points="1024.2318,-165.5001 1034.2318,-162 1024.2318,-158.5001 1024.2318,-165.5001"/>
</g>
<!-- AuthService -->
<g id="node13" class="node">
<title>AuthService</title>
<ellipse fill="#fdb462" stroke="#000000" cx="609" cy="-104" rx="59.1083" ry="18"/>
<text text-anchor="middle" x="609" y="-99.8" font-family="Times,serif" font-size="14.00" fill="#000000">AuthService</text>
</g>
<!-- AuthService&#45;&gt;AppModule -->
<g id="edge12" class="edge">
<title>AuthService&#45;&gt;AppModule</title>
<path fill="none" stroke="#000000" d="M609,-122.2222C609,-140.8285 609,-167 609,-167 609,-167 1024.1459,-167 1024.1459,-167"/>
<polygon fill="#000000" stroke="#000000" points="1024.1459,-170.5001 1034.1459,-167 1024.1458,-163.5001 1024.1459,-170.5001"/>
</g>
<!-- CarteleraService -->
<g id="node14" class="node">
<title>CarteleraService</title>
<ellipse fill="#fdb462" stroke="#000000" cx="456" cy="-104" rx="75.252" ry="18"/>
<text text-anchor="middle" x="456" y="-99.8" font-family="Times,serif" font-size="14.00" fill="#000000">CarteleraService</text>
</g>
<!-- CarteleraService&#45;&gt;AppModule -->
<g id="edge13" class="edge">
<title>CarteleraService&#45;&gt;AppModule</title>
<path fill="none" stroke="#000000" d="M456,-122.2228C456,-142.3652 456,-172 456,-172 456,-172 1023.8723,-172 1023.8723,-172"/>
<polygon fill="#000000" stroke="#000000" points="1023.8724,-175.5001 1033.8723,-172 1023.8723,-168.5001 1023.8724,-175.5001"/>
</g>
<!-- LocalStorageService -->
<g id="node15" class="node">
<title>LocalStorageService</title>
<ellipse fill="#fdb462" stroke="#000000" cx="271" cy="-104" rx="91.4481" ry="18"/>
<text text-anchor="middle" x="271" y="-99.8" font-family="Times,serif" font-size="14.00" fill="#000000">LocalStorageService</text>
</g>
<!-- LocalStorageService&#45;&gt;AppModule -->
<g id="edge14" class="edge">
<title>LocalStorageService&#45;&gt;AppModule</title>
<path fill="none" stroke="#000000" d="M271,-122.0449C271,-143.6623 271,-177 271,-177 271,-177 1024.1344,-177 1024.1344,-177"/>
<polygon fill="#000000" stroke="#000000" points="1024.1344,-180.5001 1034.1344,-177 1024.1344,-173.5001 1024.1344,-180.5001"/>
</g>
<!-- ToasterService -->
<g id="node16" class="node">
<title>ToasterService</title>
<ellipse fill="#fdb462" stroke="#000000" cx="93" cy="-104" rx="68.8946" ry="18"/>
<text text-anchor="middle" x="93" y="-99.8" font-family="Times,serif" font-size="14.00" fill="#000000">ToasterService</text>
</g>
<!-- ToasterService&#45;&gt;AppModule -->
<g id="edge15" class="edge">
<title>ToasterService&#45;&gt;AppModule</title>
<path fill="none" stroke="#000000" d="M93,-122.0908C93,-145.1328 93,-182 93,-182 93,-182 1024.0762,-182 1024.0762,-182"/>
<polygon fill="#000000" stroke="#000000" points="1024.0762,-185.5001 1034.0762,-182 1024.0761,-178.5001 1024.0762,-185.5001"/>
</g>
</g>
</svg>
