<?xml version="1.0" encoding="UTF-8" standalone="no"?>
<!DOCTYPE svg PUBLIC "-//W3C//DTD SVG 1.1//EN"
 "http://www.w3.org/Graphics/SVG/1.1/DTD/svg11.dtd">
<!-- Generated by graphviz version 2.40.1 (20161225.0304)
 -->
<!-- Title: dependencies Pages: 1 -->
<svg width="4083pt" height="358pt"
 viewBox="0.00 0.00 4083.00 358.00" xmlns="http://www.w3.org/2000/svg" xmlns:xlink="http://www.w3.org/1999/xlink">
<g id="graph0" class="graph" transform="scale(1 1) rotate(0) translate(4 354)">
<title>dependencies</title>
<polygon fill="#ffffff" stroke="transparent" points="-4,4 -4,-354 4079,-354 4079,4 -4,4"/>
<text text-anchor="start" x="2016.5091" y="-42.4" font-family="sans-serif" font-weight="bold" font-size="14.00" fill="#000000">Legend</text>
<polygon fill="#ffffb3" stroke="transparent" points="1803.5,-10 1803.5,-30 1823.5,-30 1823.5,-10 1803.5,-10"/>
<text text-anchor="start" x="1827.129" y="-15.4" font-family="sans-serif" font-size="14.00" fill="#000000"> &#160;Declarations</text>
<polygon fill="#8dd3c7" stroke="transparent" points="1916.5,-10 1916.5,-30 1936.5,-30 1936.5,-10 1916.5,-10"/>
<text text-anchor="start" x="1940.2251" y="-15.4" font-family="sans-serif" font-size="14.00" fill="#000000"> &#160;Module</text>
<polygon fill="#80b1d3" stroke="transparent" points="2002.5,-10 2002.5,-30 2022.5,-30 2022.5,-10 2002.5,-10"/>
<text text-anchor="start" x="2026.2812" y="-15.4" font-family="sans-serif" font-size="14.00" fill="#000000"> &#160;Bootstrap</text>
<polygon fill="#fdb462" stroke="transparent" points="2099.5,-10 2099.5,-30 2119.5,-30 2119.5,-10 2099.5,-10"/>
<text text-anchor="start" x="2123.1732" y="-15.4" font-family="sans-serif" font-size="14.00" fill="#000000"> &#160;Providers</text>
<polygon fill="#fb8072" stroke="transparent" points="2195.5,-10 2195.5,-30 2215.5,-30 2215.5,-10 2195.5,-10"/>
<text text-anchor="start" x="2219.2258" y="-15.4" font-family="sans-serif" font-size="14.00" fill="#000000"> &#160;Exports</text>
<g id="clust1" class="cluster">
<title>cluster_AppModule</title>
<polygon fill="none" stroke="#000000" stroke-dasharray="1,5" points="8,-70 8,-342 1796,-342 1796,-70 8,-70"/>
</g>
<g id="clust2" class="cluster">
<title>cluster_AppModule_declarations</title>
<polygon fill="none" stroke="#000000" points="881,-146 881,-198 1318,-198 1318,-146 881,-146"/>
</g>
<g id="clust6" class="cluster">
<title>cluster_AppModule_imports</title>
<polygon fill="none" stroke="#000000" points="1326,-78 1326,-198 1788,-198 1788,-78 1326,-78"/>
</g>
<g id="clust8" class="cluster">
<title>cluster_AppModule_bootstrap</title>
<polygon fill="none" stroke="#000000" points="846,-282 846,-334 970,-334 970,-282 846,-282"/>
</g>
<g id="clust9" class="cluster">
<title>cluster_AppModule_providers</title>
<polygon fill="none" stroke="#000000" points="16,-146 16,-198 839,-198 839,-146 16,-146"/>
</g>
<g id="clust16" class="cluster">
<title>cluster_CarteleraModule</title>
<polygon fill="none" stroke="#000000" stroke-dasharray="1,5" points="1804,-70 1804,-138 2594,-138 2594,-70 1804,-70"/>
</g>
<g id="clust17" class="cluster">
<title>cluster_CarteleraModule_declarations</title>
<polygon fill="none" stroke="#000000" points="1972,-78 1972,-130 2586,-130 2586,-78 1972,-78"/>
</g>
<g id="clust23" class="cluster">
<title>cluster_CarteleraModule_exports</title>
<polygon fill="none" stroke="#000000" points="1812,-78 1812,-130 1964,-130 1964,-78 1812,-78"/>
</g>
<g id="clust26" class="cluster">
<title>cluster_HomeModule</title>
<polygon fill="none" stroke="#000000" stroke-dasharray="1,5" points="2602,-70 2602,-138 3625,-138 3625,-70 2602,-70"/>
</g>
<g id="clust27" class="cluster">
<title>cluster_HomeModule_declarations</title>
<polygon fill="none" stroke="#000000" points="2754,-78 2754,-130 3617,-130 3617,-78 2754,-78"/>
</g>
<g id="clust34" class="cluster">
<title>cluster_HomeModule_exports</title>
<polygon fill="none" stroke="#000000" points="2610,-78 2610,-130 2746,-130 2746,-78 2610,-78"/>
</g>
<g id="clust43" class="cluster">
<title>cluster_PostModule</title>
<polygon fill="none" stroke="#000000" stroke-dasharray="1,5" points="1804,-206 1804,-274 2482,-274 2482,-206 1804,-206"/>
</g>
<g id="clust44" class="cluster">
<title>cluster_PostModule_declarations</title>
<polygon fill="none" stroke="#000000" points="2150,-214 2150,-266 2474,-266 2474,-214 2150,-214"/>
</g>
<g id="clust48" class="cluster">
<title>cluster_PostModule_exports</title>
<polygon fill="none" stroke="#000000" points="1812,-214 1812,-266 2142,-266 2142,-214 1812,-214"/>
</g>
<g id="clust51" class="cluster">
<title>cluster_UsuarioModule</title>
<polygon fill="none" stroke="#000000" stroke-dasharray="1,5" points="3633,-70 3633,-138 4067,-138 4067,-70 3633,-70"/>
</g>
<g id="clust52" class="cluster">
<title>cluster_UsuarioModule_declarations</title>
<polygon fill="none" stroke="#000000" points="3781,-78 3781,-130 4059,-130 4059,-78 3781,-78"/>
</g>
<g id="clust56" class="cluster">
<title>cluster_UsuarioModule_exports</title>
<polygon fill="none" stroke="#000000" points="3641,-78 3641,-130 3773,-130 3773,-78 3641,-78"/>
</g>
<!-- AppComponent -->
<g id="node1" class="node">
<title>AppComponent</title>
<polygon fill="#ffffb3" stroke="#000000" points="1126.9399,-190 1021.0601,-190 1021.0601,-154 1126.9399,-154 1126.9399,-190"/>
<text text-anchor="middle" x="1074" y="-167.8" font-family="Times,serif" font-size="14.00" fill="#000000">AppComponent</text>
</g>
<!-- AppModule -->
<g id="node4" class="node">
<title>AppModule</title>
<polygon fill="#8dd3c7" stroke="#000000" points="949.6571,-258 946.6571,-262 925.6571,-262 922.6571,-258 866.3429,-258 866.3429,-222 949.6571,-222 949.6571,-258"/>
<text text-anchor="middle" x="908" y="-235.8" font-family="Times,serif" font-size="14.00" fill="#000000">AppModule</text>
</g>
<!-- AppComponent&#45;&gt;AppModule -->
<g id="edge1" class="edge">
<title>AppComponent&#45;&gt;AppModule</title>
<path fill="none" stroke="#000000" d="M1074,-190.0336C1074,-207.0597 1074,-230 1074,-230 1074,-230 959.8888,-230 959.8888,-230"/>
<polygon fill="#000000" stroke="#000000" points="959.8888,-226.5001 949.8888,-230 959.8888,-233.5001 959.8888,-226.5001"/>
</g>
<!-- LoginComponent -->
<g id="node2" class="node">
<title>LoginComponent</title>
<polygon fill="#ffffb3" stroke="#000000" points="1003.2758,-190 888.7242,-190 888.7242,-154 1003.2758,-154 1003.2758,-190"/>
<text text-anchor="middle" x="946" y="-167.8" font-family="Times,serif" font-size="14.00" fill="#000000">LoginComponent</text>
</g>
<!-- LoginComponent&#45;&gt;AppModule -->
<g id="edge2" class="edge">
<title>LoginComponent&#45;&gt;AppModule</title>
<path fill="none" stroke="#000000" d="M919.2202,-190.2228C919.2202,-190.2228 919.2202,-211.7269 919.2202,-211.7269"/>
<polygon fill="#000000" stroke="#000000" points="915.7203,-211.7269 919.2202,-221.7269 922.7203,-211.727 915.7203,-211.7269"/>
</g>
<!-- PageNotFoundComponent -->
<g id="node3" class="node">
<title>PageNotFoundComponent</title>
<polygon fill="#ffffb3" stroke="#000000" points="1309.8243,-190 1144.1757,-190 1144.1757,-154 1309.8243,-154 1309.8243,-190"/>
<text text-anchor="middle" x="1227" y="-167.8" font-family="Times,serif" font-size="14.00" fill="#000000">PageNotFoundComponent</text>
</g>
<!-- PageNotFoundComponent&#45;&gt;AppModule -->
<g id="edge3" class="edge">
<title>PageNotFoundComponent&#45;&gt;AppModule</title>
<path fill="none" stroke="#000000" d="M1227,-190.302C1227,-208.2699 1227,-233 1227,-233 1227,-233 959.7037,-233 959.7037,-233"/>
<polygon fill="#000000" stroke="#000000" points="959.7037,-229.5001 949.7037,-233 959.7036,-236.5001 959.7037,-229.5001"/>
</g>
<!-- AppComponent  -->
<g id="node11" class="node">
<title>AppComponent </title>
<polygon fill="#80b1d3" stroke="#000000" points="962.439,-326 853.561,-326 853.561,-290 962.439,-290 962.439,-326"/>
<text text-anchor="middle" x="908" y="-303.8" font-family="Times,serif" font-size="14.00" fill="#000000">AppComponent </text>
</g>
<!-- AppModule&#45;&gt;AppComponent  -->
<g id="edge10" class="edge">
<title>AppModule&#45;&gt;AppComponent </title>
<path fill="none" stroke="#000000" stroke-dasharray="1,5" d="M908,-258.2228C908,-258.2228 908,-279.7269 908,-279.7269"/>
<polygon fill="#000000" stroke="#000000" points="904.5001,-279.7269 908,-289.7269 911.5001,-279.727 904.5001,-279.7269"/>
</g>
<!-- AppRoutingModule -->
<g id="node5" class="node">
<title>AppRoutingModule</title>
<polygon fill="#8dd3c7" stroke="#000000" points="1500.2744,-122 1497.2744,-126 1476.2744,-126 1473.2744,-122 1371.7256,-122 1371.7256,-86 1500.2744,-86 1500.2744,-122"/>
<text text-anchor="middle" x="1436" y="-99.8" font-family="Times,serif" font-size="14.00" fill="#000000">AppRoutingModule</text>
</g>
<!-- AppRoutingModule&#45;&gt;AppModule -->
<g id="edge4" class="edge">
<title>AppRoutingModule&#45;&gt;AppModule</title>
<path fill="none" stroke="#000000" d="M1426.7051,-122.0597C1426.7051,-159.0544 1426.7051,-240 1426.7051,-240 1426.7051,-240 960.0084,-240 960.0084,-240"/>
<polygon fill="#000000" stroke="#000000" points="960.0085,-236.5001 950.0084,-240 960.0084,-243.5001 960.0085,-236.5001"/>
</g>
<!-- CarteleraModule -->
<g id="node6" class="node">
<title>CarteleraModule</title>
<polygon fill="#8dd3c7" stroke="#000000" points="1546.3473,-190 1543.3473,-194 1522.3473,-194 1519.3473,-190 1435.6527,-190 1435.6527,-154 1546.3473,-154 1546.3473,-190"/>
<text text-anchor="middle" x="1491" y="-167.8" font-family="Times,serif" font-size="14.00" fill="#000000">CarteleraModule</text>
</g>
<!-- AppRoutingModule&#45;&gt;CarteleraModule -->
<g id="edge20" class="edge">
<title>AppRoutingModule&#45;&gt;CarteleraModule</title>
<path fill="none" stroke="#000000" d="M1451.7791,-122.2228C1451.7791,-122.2228 1451.7791,-143.7269 1451.7791,-143.7269"/>
<polygon fill="#000000" stroke="#000000" points="1448.2792,-143.7269 1451.7791,-153.7269 1455.2792,-143.727 1448.2792,-143.7269"/>
</g>
<!-- HomeModule -->
<g id="node7" class="node">
<title>HomeModule</title>
<polygon fill="#8dd3c7" stroke="#000000" points="1657.7619,-190 1654.7619,-194 1633.7619,-194 1630.7619,-190 1564.2381,-190 1564.2381,-154 1657.7619,-154 1657.7619,-190"/>
<text text-anchor="middle" x="1611" y="-167.8" font-family="Times,serif" font-size="14.00" fill="#000000">HomeModule</text>
</g>
<!-- AppRoutingModule&#45;&gt;HomeModule -->
<g id="edge28" class="edge">
<title>AppRoutingModule&#45;&gt;HomeModule</title>
<path fill="none" stroke="#000000" d="M1467.9818,-122.1467C1467.9818,-135.7395 1467.9818,-152 1467.9818,-152 1467.9818,-152 1584.5746,-152 1584.5746,-152 1584.5746,-152 1584.5746,-152.1846 1584.5746,-152.1846"/>
<polygon fill="#000000" stroke="#000000" points="1581.0752,-143.8455 1584.5746,-153.8457 1588.0752,-143.8459 1581.0752,-143.8455"/>
</g>
<!-- PostModule -->
<g id="node9" class="node">
<title>PostModule</title>
<polygon fill="#8dd3c7" stroke="#000000" points="1417.6683,-190 1414.6683,-194 1393.6683,-194 1390.6683,-190 1334.3317,-190 1334.3317,-154 1417.6683,-154 1417.6683,-190"/>
<text text-anchor="middle" x="1376" y="-167.8" font-family="Times,serif" font-size="14.00" fill="#000000">PostModule</text>
</g>
<!-- AppRoutingModule&#45;&gt;PostModule -->
<g id="edge33" class="edge">
<title>AppRoutingModule&#45;&gt;PostModule</title>
<path fill="none" stroke="#000000" d="M1387.0199,-122.2228C1387.0199,-122.2228 1387.0199,-143.7269 1387.0199,-143.7269"/>
<polygon fill="#000000" stroke="#000000" points="1383.52,-143.7269 1387.0199,-153.7269 1390.52,-143.727 1383.52,-143.7269"/>
</g>
<!-- UsuarioModule -->
<g id="node10" class="node">
<title>UsuarioModule</title>
<polygon fill="#8dd3c7" stroke="#000000" points="1779.8669,-190 1776.8669,-194 1755.8669,-194 1752.8669,-190 1676.1331,-190 1676.1331,-154 1779.8669,-154 1779.8669,-190"/>
<text text-anchor="middle" x="1728" y="-167.8" font-family="Times,serif" font-size="14.00" fill="#000000">UsuarioModule</text>
</g>
<!-- AppRoutingModule&#45;&gt;UsuarioModule -->
<g id="edge39" class="edge">
<title>AppRoutingModule&#45;&gt;UsuarioModule</title>
<path fill="none" stroke="#000000" d="M1484.1844,-122.08C1484.1844,-123.8464 1484.1844,-125 1484.1844,-125 1484.1844,-125 1710.6889,-125 1710.6889,-125 1710.6889,-125 1710.6889,-143.963 1710.6889,-143.963"/>
<polygon fill="#000000" stroke="#000000" points="1707.189,-143.963 1710.6889,-153.963 1714.189,-143.963 1707.189,-143.963"/>
</g>
<!-- CarteleraModule&#45;&gt;AppModule -->
<g id="edge5" class="edge">
<title>CarteleraModule&#45;&gt;AppModule</title>
<path fill="none" stroke="#000000" d="M1491,-190.1686C1491,-211.498 1491,-244 1491,-244 1491,-244 959.9279,-244 959.9279,-244"/>
<polygon fill="#000000" stroke="#000000" points="959.928,-240.5001 949.9279,-244 959.9279,-247.5001 959.928,-240.5001"/>
</g>
<!-- CarteleraComponent  -->
<g id="node21" class="node">
<title>CarteleraComponent </title>
<polygon fill="#fb8072" stroke="#000000" points="1956.1299,-122 1819.8701,-122 1819.8701,-86 1956.1299,-86 1956.1299,-122"/>
<text text-anchor="middle" x="1888" y="-99.8" font-family="Times,serif" font-size="14.00" fill="#000000">CarteleraComponent </text>
</g>
<!-- CarteleraModule&#45;&gt;CarteleraComponent  -->
<g id="edge22" class="edge">
<title>CarteleraModule&#45;&gt;CarteleraComponent </title>
<path fill="none" stroke="#000000" stroke-dasharray="5,2" d="M1542.935,-153.5146C1542.935,-141.8601 1542.935,-129 1542.935,-129 1542.935,-129 1874.2051,-129 1874.2051,-129 1874.2051,-129 1874.2051,-128.3169 1874.2051,-128.3169"/>
<polygon fill="#000000" stroke="#000000" points="1877.7053,-132.1686 1874.2051,-122.1686 1870.7053,-132.1687 1877.7053,-132.1686"/>
</g>
<!-- HomeModule&#45;&gt;AppModule -->
<g id="edge6" class="edge">
<title>HomeModule&#45;&gt;AppModule</title>
<path fill="none" stroke="#000000" d="M1611,-190.3228C1611,-213.6602 1611,-251 1611,-251 1611,-251 959.8706,-251 959.8706,-251"/>
<polygon fill="#000000" stroke="#000000" points="959.8706,-247.5001 949.8706,-251 959.8705,-254.5001 959.8706,-247.5001"/>
</g>
<!-- HomeComponent  -->
<g id="node27" class="node">
<title>HomeComponent </title>
<polygon fill="#fb8072" stroke="#000000" points="2737.5442,-122 2618.4558,-122 2618.4558,-86 2737.5442,-86 2737.5442,-122"/>
<text text-anchor="middle" x="2678" y="-99.8" font-family="Times,serif" font-size="14.00" fill="#000000">HomeComponent </text>
</g>
<!-- HomeModule&#45;&gt;HomeComponent  -->
<g id="edge30" class="edge">
<title>HomeModule&#45;&gt;HomeComponent </title>
<path fill="none" stroke="#000000" stroke-dasharray="5,2" d="M1653.2529,-153.7566C1653.2529,-146.5703 1653.2529,-140 1653.2529,-140 1653.2529,-140 2678,-140 2678,-140 2678,-140 2678,-132.4218 2678,-132.4218"/>
<polygon fill="#000000" stroke="#000000" points="2681.5001,-132.4218 2678,-122.4218 2674.5001,-132.4219 2681.5001,-132.4218"/>
</g>
<!-- MaterialModule -->
<g id="node8" class="node">
<title>MaterialModule</title>
<polygon fill="#8dd3c7" stroke="#000000" points="1625.4706,-122 1622.4706,-126 1601.4706,-126 1598.4706,-122 1518.5294,-122 1518.5294,-86 1625.4706,-86 1625.4706,-122"/>
<text text-anchor="middle" x="1572" y="-99.8" font-family="Times,serif" font-size="14.00" fill="#000000">MaterialModule</text>
</g>
<!-- MaterialModule&#45;&gt;AppModule -->
<g id="edge7" class="edge">
<title>MaterialModule&#45;&gt;AppModule</title>
<path fill="none" stroke="#000000" d="M1555.2714,-122.2377C1555.2714,-160.9861 1555.2714,-248 1555.2714,-248 1555.2714,-248 959.9706,-248 959.9706,-248"/>
<polygon fill="#000000" stroke="#000000" points="959.9706,-244.5001 949.9706,-248 959.9705,-251.5001 959.9706,-244.5001"/>
</g>
<!-- MaterialModule&#45;&gt;CarteleraModule -->
<g id="edge21" class="edge">
<title>MaterialModule&#45;&gt;CarteleraModule</title>
<path fill="none" stroke="#000000" d="M1525.4919,-122.2228C1525.4919,-122.2228 1525.4919,-143.7269 1525.4919,-143.7269"/>
<polygon fill="#000000" stroke="#000000" points="1521.992,-143.7269 1525.4919,-153.7269 1528.992,-143.727 1521.992,-143.7269"/>
</g>
<!-- MaterialModule&#45;&gt;HomeModule -->
<g id="edge29" class="edge">
<title>MaterialModule&#45;&gt;HomeModule</title>
<path fill="none" stroke="#000000" d="M1605.0299,-122.2228C1605.0299,-122.2228 1605.0299,-143.7269 1605.0299,-143.7269"/>
<polygon fill="#000000" stroke="#000000" points="1601.53,-143.7269 1605.0299,-153.7269 1608.53,-143.727 1601.53,-143.7269"/>
</g>
<!-- MaterialModule&#45;&gt;PostModule -->
<g id="edge34" class="edge">
<title>MaterialModule&#45;&gt;PostModule</title>
<path fill="none" stroke="#000000" d="M1522.0033,-122.1223C1522.0033,-124.9729 1522.0033,-127 1522.0033,-127 1522.0033,-127 1402.4268,-127 1402.4268,-127 1402.4268,-127 1402.4268,-143.9561 1402.4268,-143.9561"/>
<polygon fill="#000000" stroke="#000000" points="1398.9269,-143.956 1402.4268,-153.9561 1405.9269,-143.9561 1398.9269,-143.956"/>
</g>
<!-- MaterialModule&#45;&gt;UsuarioModule -->
<g id="edge40" class="edge">
<title>MaterialModule&#45;&gt;UsuarioModule</title>
<path fill="none" stroke="#000000" d="M1625.8867,-104C1676.7626,-104 1745.3111,-104 1745.3111,-104 1745.3111,-104 1745.3111,-143.7772 1745.3111,-143.7772"/>
<polygon fill="#000000" stroke="#000000" points="1741.8112,-143.7772 1745.3111,-153.7772 1748.8112,-143.7773 1741.8112,-143.7772"/>
</g>
<!-- PostModule&#45;&gt;AppModule -->
<g id="edge8" class="edge">
<title>PostModule&#45;&gt;AppModule</title>
<path fill="none" stroke="#000000" d="M1389.9446,-190.1061C1389.9446,-209.3391 1389.9446,-237 1389.9446,-237 1389.9446,-237 959.9263,-237 959.9263,-237"/>
<polygon fill="#000000" stroke="#000000" points="959.9264,-233.5001 949.9263,-237 959.9263,-240.5001 959.9264,-233.5001"/>
</g>
<!-- DeleteComentarioComponent  -->
<g id="node30" class="node">
<title>DeleteComentarioComponent </title>
<polygon fill="#fb8072" stroke="#000000" points="2133.9628,-258 1946.0372,-258 1946.0372,-222 2133.9628,-222 2133.9628,-258"/>
<text text-anchor="middle" x="2040" y="-235.8" font-family="Times,serif" font-size="14.00" fill="#000000">DeleteComentarioComponent </text>
</g>
<!-- PostModule&#45;&gt;DeleteComentarioComponent  -->
<g id="edge35" class="edge">
<title>PostModule&#45;&gt;DeleteComentarioComponent </title>
<path fill="none" stroke="#000000" stroke-dasharray="5,2" d="M1376,-190.0555C1376,-201.439 1376,-214 1376,-214 1376,-214 1951.1669,-214 1951.1669,-214 1951.1669,-214 1951.1669,-214.7942 1951.1669,-214.7942"/>
<polygon fill="#000000" stroke="#000000" points="1947.667,-211.9421 1951.1669,-221.9421 1954.667,-211.9422 1947.667,-211.9421"/>
</g>
<!-- PostComponent  -->
<g id="node31" class="node">
<title>PostComponent </title>
<polygon fill="#fb8072" stroke="#000000" points="1928.4502,-258 1819.5498,-258 1819.5498,-222 1928.4502,-222 1928.4502,-258"/>
<text text-anchor="middle" x="1874" y="-235.8" font-family="Times,serif" font-size="14.00" fill="#000000">PostComponent </text>
</g>
<!-- PostModule&#45;&gt;PostComponent  -->
<g id="edge36" class="edge">
<title>PostModule&#45;&gt;PostComponent </title>
<path fill="none" stroke="#000000" stroke-dasharray="5,2" d="M1403.8892,-190.2819C1403.8892,-205.9478 1403.8892,-226 1403.8892,-226 1403.8892,-226 1809.1523,-226 1809.1523,-226"/>
<polygon fill="#000000" stroke="#000000" points="1809.1523,-229.5001 1819.1523,-226 1809.1522,-222.5001 1809.1523,-229.5001"/>
</g>
<!-- UsuarioModule&#45;&gt;AppModule -->
<g id="edge9" class="edge">
<title>UsuarioModule&#45;&gt;AppModule</title>
<path fill="none" stroke="#000000" d="M1728,-190.0098C1728,-214.4207 1728,-255 1728,-255 1728,-255 959.7913,-255 959.7913,-255"/>
<polygon fill="#000000" stroke="#000000" points="959.7913,-251.5001 949.7913,-255 959.7912,-258.5001 959.7913,-251.5001"/>
</g>
<!-- PerfilComponent  -->
<g id="node34" class="node">
<title>PerfilComponent </title>
<polygon fill="#fb8072" stroke="#000000" points="3764.932,-122 3649.068,-122 3649.068,-86 3764.932,-86 3764.932,-122"/>
<text text-anchor="middle" x="3707" y="-99.8" font-family="Times,serif" font-size="14.00" fill="#000000">PerfilComponent </text>
</g>
<!-- UsuarioModule&#45;&gt;PerfilComponent  -->
<g id="edge41" class="edge">
<title>UsuarioModule&#45;&gt;PerfilComponent </title>
<path fill="none" stroke="#000000" stroke-dasharray="5,2" d="M1779.9162,-163C2092.1606,-163 3707,-163 3707,-163 3707,-163 3707,-132.0225 3707,-132.0225"/>
<polygon fill="#000000" stroke="#000000" points="3710.5001,-132.0225 3707,-122.0225 3703.5001,-132.0226 3710.5001,-132.0225"/>
</g>
<!-- AuthInterceptor -->
<g id="node12" class="node">
<title>AuthInterceptor</title>
<ellipse fill="#fdb462" stroke="#000000" cx="233" cy="-172" rx="72.9121" ry="18"/>
<text text-anchor="middle" x="233" y="-167.8" font-family="Times,serif" font-size="14.00" fill="#000000">AuthInterceptor</text>
</g>
<!-- AuthInterceptor&#45;&gt;AppModule -->
<g id="edge11" class="edge">
<title>AuthInterceptor&#45;&gt;AppModule</title>
<path fill="none" stroke="#000000" d="M233,-190.1686C233,-211.498 233,-244 233,-244 233,-244 856.2851,-244 856.2851,-244"/>
<polygon fill="#000000" stroke="#000000" points="856.2852,-247.5001 866.2851,-244 856.2851,-240.5001 856.2852,-247.5001"/>
</g>
<!-- AuthService -->
<g id="node13" class="node">
<title>AuthService</title>
<ellipse fill="#fdb462" stroke="#000000" cx="83" cy="-172" rx="59.1083" ry="18"/>
<text text-anchor="middle" x="83" y="-167.8" font-family="Times,serif" font-size="14.00" fill="#000000">AuthService</text>
</g>
<!-- AuthService&#45;&gt;AppModule -->
<g id="edge12" class="edge">
<title>AuthService&#45;&gt;AppModule</title>
<path fill="none" stroke="#000000" d="M83,-190.3228C83,-213.6602 83,-251 83,-251 83,-251 856.2388,-251 856.2388,-251"/>
<polygon fill="#000000" stroke="#000000" points="856.2388,-254.5001 866.2388,-251 856.2387,-247.5001 856.2388,-254.5001"/>
</g>
<!-- CarteleraService -->
<g id="node14" class="node">
<title>CarteleraService</title>
<ellipse fill="#fdb462" stroke="#000000" cx="756" cy="-172" rx="75.252" ry="18"/>
<text text-anchor="middle" x="756" y="-167.8" font-family="Times,serif" font-size="14.00" fill="#000000">CarteleraService</text>
</g>
<!-- CarteleraService&#45;&gt;AppModule -->
<g id="edge13" class="edge">
<title>CarteleraService&#45;&gt;AppModule</title>
<path fill="none" stroke="#000000" d="M831.4989,-172C856.1851,-172 877.392,-172 877.392,-172 877.392,-172 877.392,-211.7772 877.392,-211.7772"/>
<polygon fill="#000000" stroke="#000000" points="873.8921,-211.7772 877.392,-221.7772 880.8921,-211.7773 873.8921,-211.7772"/>
</g>
<!-- LocalStorageService -->
<g id="node15" class="node">
<title>LocalStorageService</title>
<ellipse fill="#fdb462" stroke="#000000" cx="571" cy="-172" rx="91.4481" ry="18"/>
<text text-anchor="middle" x="571" y="-167.8" font-family="Times,serif" font-size="14.00" fill="#000000">LocalStorageService</text>
</g>
<!-- LocalStorageService&#45;&gt;AppModule -->
<g id="edge14" class="edge">
<title>LocalStorageService&#45;&gt;AppModule</title>
<path fill="none" stroke="#000000" d="M571,-190.0336C571,-207.0597 571,-230 571,-230 571,-230 856.3392,-230 856.3392,-230"/>
<polygon fill="#000000" stroke="#000000" points="856.3392,-233.5001 866.3392,-230 856.3392,-226.5001 856.3392,-233.5001"/>
</g>
<!-- ToasterService -->
<g id="node16" class="node">
<title>ToasterService</title>
<ellipse fill="#fdb462" stroke="#000000" cx="393" cy="-172" rx="68.8946" ry="18"/>
<text text-anchor="middle" x="393" y="-167.8" font-family="Times,serif" font-size="14.00" fill="#000000">ToasterService</text>
</g>
<!-- ToasterService&#45;&gt;AppModule -->
<g id="edge15" class="edge">
<title>ToasterService&#45;&gt;AppModule</title>
<path fill="none" stroke="#000000" d="M393,-190.1061C393,-209.3391 393,-237 393,-237 393,-237 856.2916,-237 856.2916,-237"/>
<polygon fill="#000000" stroke="#000000" points="856.2917,-240.5001 866.2916,-237 856.2916,-233.5001 856.2917,-240.5001"/>
</g>
<!-- CarteleraComponent -->
<g id="node17" class="node">
<title>CarteleraComponent</title>
<polygon fill="#ffffb3" stroke="#000000" points="2578.1303,-122 2445.8697,-122 2445.8697,-86 2578.1303,-86 2578.1303,-122"/>
<text text-anchor="middle" x="2512" y="-99.8" font-family="Times,serif" font-size="14.00" fill="#000000">CarteleraComponent</text>
</g>
<!-- CarteleraComponent&#45;&gt;CarteleraModule -->
<g id="edge16" class="edge">
<title>CarteleraComponent&#45;&gt;CarteleraModule</title>
<path fill="none" stroke="#000000" d="M2455.8331,-122.0449C2455.8331,-129.749 2455.8331,-137 2455.8331,-137 2455.8331,-137 1539.4464,-137 1539.4464,-137 1539.4464,-137 1539.4464,-143.68 1539.4464,-143.68"/>
<polygon fill="#000000" stroke="#000000" points="1535.9465,-143.6799 1539.4464,-153.68 1542.9465,-143.68 1535.9465,-143.6799"/>
</g>
<!-- CreatePostComponent -->
<g id="node18" class="node">
<title>CreatePostComponent</title>
<polygon fill="#ffffb3" stroke="#000000" points="2427.9818,-122 2286.0182,-122 2286.0182,-86 2427.9818,-86 2427.9818,-122"/>
<text text-anchor="middle" x="2357" y="-99.8" font-family="Times,serif" font-size="14.00" fill="#000000">CreatePostComponent</text>
</g>
<!-- CreatePostComponent&#45;&gt;CarteleraModule -->
<g id="edge17" class="edge">
<title>CreatePostComponent&#45;&gt;CarteleraModule</title>
<path fill="none" stroke="#000000" d="M2380.6636,-122.0328C2380.6636,-128.8526 2380.6636,-135 2380.6636,-135 2380.6636,-135 1535.9578,-135 1535.9578,-135 1535.9578,-135 1535.9578,-143.9336 1535.9578,-143.9336"/>
<polygon fill="#000000" stroke="#000000" points="1532.4579,-143.9335 1535.9578,-153.9336 1539.4579,-143.9336 1532.4579,-143.9335"/>
</g>
<!-- DeletePostComponent -->
<g id="node19" class="node">
<title>DeletePostComponent</title>
<polygon fill="#ffffb3" stroke="#000000" points="2267.9818,-122 2126.0182,-122 2126.0182,-86 2267.9818,-86 2267.9818,-122"/>
<text text-anchor="middle" x="2197" y="-99.8" font-family="Times,serif" font-size="14.00" fill="#000000">DeletePostComponent</text>
</g>
<!-- DeletePostComponent&#45;&gt;CarteleraModule -->
<g id="edge18" class="edge">
<title>DeletePostComponent&#45;&gt;CarteleraModule</title>
<path fill="none" stroke="#000000" d="M2129.8701,-122.2015C2129.8701,-128.028 2129.8701,-133 2129.8701,-133 2129.8701,-133 1532.4691,-133 1532.4691,-133 1532.4691,-133 1532.4691,-143.8701 1532.4691,-143.8701"/>
<polygon fill="#000000" stroke="#000000" points="1528.9692,-143.8701 1532.4691,-153.8701 1535.9692,-143.8701 1528.9692,-143.8701"/>
</g>
<!-- EditPostComponent -->
<g id="node20" class="node">
<title>EditPostComponent</title>
<polygon fill="#ffffb3" stroke="#000000" points="2108.2842,-122 1979.7158,-122 1979.7158,-86 2108.2842,-86 2108.2842,-122"/>
<text text-anchor="middle" x="2044" y="-99.8" font-family="Times,serif" font-size="14.00" fill="#000000">EditPostComponent</text>
</g>
<!-- EditPostComponent&#45;&gt;CarteleraModule -->
<g id="edge19" class="edge">
<title>EditPostComponent&#45;&gt;CarteleraModule</title>
<path fill="none" stroke="#000000" d="M2044,-122.1592C2044,-127.0433 2044,-131 2044,-131 2044,-131 1528.9805,-131 1528.9805,-131 1528.9805,-131 1528.9805,-143.8975 1528.9805,-143.8975"/>
<polygon fill="#000000" stroke="#000000" points="1525.4806,-143.8974 1528.9805,-153.8975 1532.4806,-143.8975 1525.4806,-143.8974"/>
</g>
<!-- CreateCarteleraComponent -->
<g id="node22" class="node">
<title>CreateCarteleraComponent</title>
<polygon fill="#ffffb3" stroke="#000000" points="3292.6615,-122 3123.3385,-122 3123.3385,-86 3292.6615,-86 3292.6615,-122"/>
<text text-anchor="middle" x="3208" y="-99.8" font-family="Times,serif" font-size="14.00" fill="#000000">CreateCarteleraComponent</text>
</g>
<!-- CreateCarteleraComponent&#45;&gt;HomeModule -->
<g id="edge23" class="edge">
<title>CreateCarteleraComponent&#45;&gt;HomeModule</title>
<path fill="none" stroke="#000000" d="M3208,-122.0555C3208,-133.439 3208,-146 3208,-146 3208,-146 1639.3691,-146 1639.3691,-146 1639.3691,-146 1639.3691,-146.7942 1639.3691,-146.7942"/>
<polygon fill="#000000" stroke="#000000" points="1635.8692,-143.9421 1639.3691,-153.9421 1642.8692,-143.9422 1635.8692,-143.9421"/>
</g>
<!-- DeleteCarteleraComponent -->
<g id="node23" class="node">
<title>DeleteCarteleraComponent</title>
<polygon fill="#ffffb3" stroke="#000000" points="3105.6615,-122 2936.3385,-122 2936.3385,-86 3105.6615,-86 3105.6615,-122"/>
<text text-anchor="middle" x="3021" y="-99.8" font-family="Times,serif" font-size="14.00" fill="#000000">DeleteCarteleraComponent</text>
</g>
<!-- DeleteCarteleraComponent&#45;&gt;HomeModule -->
<g id="edge24" class="edge">
<title>DeleteCarteleraComponent&#45;&gt;HomeModule</title>
<path fill="none" stroke="#000000" d="M3021,-122.1274C3021,-132.7109 3021,-144 3021,-144 3021,-144 1634.7412,-144 1634.7412,-144 1634.7412,-144 1634.7412,-144.9793 1634.7412,-144.9793"/>
<polygon fill="#000000" stroke="#000000" points="1631.2413,-143.793 1634.7412,-153.793 1638.2413,-143.7931 1631.2413,-143.793"/>
</g>
<!-- EditCarteleraComponent -->
<g id="node24" class="node">
<title>EditCarteleraComponent</title>
<polygon fill="#ffffb3" stroke="#000000" points="2917.9636,-122 2762.0364,-122 2762.0364,-86 2917.9636,-86 2917.9636,-122"/>
<text text-anchor="middle" x="2840" y="-99.8" font-family="Times,serif" font-size="14.00" fill="#000000">EditCarteleraComponent</text>
</g>
<!-- EditCarteleraComponent&#45;&gt;HomeModule -->
<g id="edge25" class="edge">
<title>EditCarteleraComponent&#45;&gt;HomeModule</title>
<path fill="none" stroke="#000000" d="M2840,-122.1097C2840,-131.897 2840,-142 2840,-142 2840,-142 1630.1132,-142 1630.1132,-142 1630.1132,-142 1630.1132,-143.8568 1630.1132,-143.8568"/>
<polygon fill="#000000" stroke="#000000" points="1626.6133,-143.8568 1630.1132,-153.8568 1633.6133,-143.8568 1626.6133,-143.8568"/>
</g>
<!-- HomeComponent -->
<g id="node25" class="node">
<title>HomeComponent</title>
<polygon fill="#ffffb3" stroke="#000000" points="3608.5451,-122 3493.4549,-122 3493.4549,-86 3608.5451,-86 3608.5451,-122"/>
<text text-anchor="middle" x="3551" y="-99.8" font-family="Times,serif" font-size="14.00" fill="#000000">HomeComponent</text>
</g>
<!-- HomeComponent&#45;&gt;HomeModule -->
<g id="edge26" class="edge">
<title>HomeComponent&#45;&gt;HomeModule</title>
<path fill="none" stroke="#000000" d="M3551,-122.1804C3551,-135.0382 3551,-150 3551,-150 3551,-150 1648.6249,-150 1648.6249,-150 1648.6249,-150 1648.6249,-150.3832 1648.6249,-150.3832"/>
<polygon fill="#000000" stroke="#000000" points="1645.1252,-143.832 1648.6249,-153.8321 1652.1252,-143.8322 1645.1252,-143.832"/>
</g>
<!-- VerSeguidoresComponent -->
<g id="node26" class="node">
<title>VerSeguidoresComponent</title>
<polygon fill="#ffffb3" stroke="#000000" points="3475.0225,-122 3310.9775,-122 3310.9775,-86 3475.0225,-86 3475.0225,-122"/>
<text text-anchor="middle" x="3393" y="-99.8" font-family="Times,serif" font-size="14.00" fill="#000000">VerSeguidoresComponent</text>
</g>
<!-- VerSeguidoresComponent&#45;&gt;HomeModule -->
<g id="edge27" class="edge">
<title>VerSeguidoresComponent&#45;&gt;HomeModule</title>
<path fill="none" stroke="#000000" d="M3393,-122.1505C3393,-134.2708 3393,-148 3393,-148 3393,-148 1643.997,-148 1643.997,-148 1643.997,-148 1643.997,-148.581 1643.997,-148.581"/>
<polygon fill="#000000" stroke="#000000" points="1640.4972,-143.8097 1643.997,-153.8097 1647.4972,-143.8098 1640.4972,-143.8097"/>
</g>
<!-- DeleteComentarioComponent -->
<g id="node28" class="node">
<title>DeleteComentarioComponent</title>
<polygon fill="#ffffb3" stroke="#000000" points="2465.9622,-258 2282.0378,-258 2282.0378,-222 2465.9622,-222 2465.9622,-258"/>
<text text-anchor="middle" x="2374" y="-235.8" font-family="Times,serif" font-size="14.00" fill="#000000">DeleteComentarioComponent</text>
</g>
<!-- DeleteComentarioComponent&#45;&gt;PostModule -->
<g id="edge31" class="edge">
<title>DeleteComentarioComponent&#45;&gt;PostModule</title>
<path fill="none" stroke="#000000" d="M2333.3364,-221.9445C2333.3364,-210.561 2333.3364,-198 2333.3364,-198 2333.3364,-198 1362.0554,-198 1362.0554,-198 1362.0554,-198 1362.0554,-197.2058 1362.0554,-197.2058"/>
<polygon fill="#000000" stroke="#000000" points="1365.5555,-200.0578 1362.0554,-190.0579 1358.5555,-200.0579 1365.5555,-200.0578"/>
</g>
<!-- PostComponent -->
<g id="node29" class="node">
<title>PostComponent</title>
<polygon fill="#ffffb3" stroke="#000000" points="2263.9512,-258 2158.0488,-258 2158.0488,-222 2263.9512,-222 2263.9512,-258"/>
<text text-anchor="middle" x="2211" y="-235.8" font-family="Times,serif" font-size="14.00" fill="#000000">PostComponent</text>
</g>
<!-- PostComponent&#45;&gt;PostModule -->
<g id="edge32" class="edge">
<title>PostComponent&#45;&gt;PostModule</title>
<path fill="none" stroke="#000000" d="M2211,-221.8056C2211,-213.7218 2211,-206 2211,-206 2211,-206 1348.1108,-206 1348.1108,-206 1348.1108,-206 1348.1108,-200.1944 1348.1108,-200.1944"/>
<polygon fill="#000000" stroke="#000000" points="1351.6109,-200.1944 1348.1108,-190.1944 1344.6109,-200.1945 1351.6109,-200.1944"/>
</g>
<!-- EditUserComponent -->
<g id="node32" class="node">
<title>EditUserComponent</title>
<polygon fill="#ffffb3" stroke="#000000" points="4050.5926,-122 3919.4074,-122 3919.4074,-86 4050.5926,-86 4050.5926,-122"/>
<text text-anchor="middle" x="3985" y="-99.8" font-family="Times,serif" font-size="14.00" fill="#000000">EditUserComponent</text>
</g>
<!-- EditUserComponent&#45;&gt;UsuarioModule -->
<g id="edge37" class="edge">
<title>EditUserComponent&#45;&gt;UsuarioModule</title>
<path fill="none" stroke="#000000" d="M3985,-122.2479C3985,-145.0179 3985,-181 3985,-181 3985,-181 1789.9233,-181 1789.9233,-181"/>
<polygon fill="#000000" stroke="#000000" points="1789.9233,-177.5001 1779.9233,-181 1789.9232,-184.5001 1789.9233,-177.5001"/>
</g>
<!-- PerfilComponent -->
<g id="node33" class="node">
<title>PerfilComponent</title>
<polygon fill="#ffffb3" stroke="#000000" points="3901.4328,-122 3788.5672,-122 3788.5672,-86 3901.4328,-86 3901.4328,-122"/>
<text text-anchor="middle" x="3845" y="-99.8" font-family="Times,serif" font-size="14.00" fill="#000000">PerfilComponent</text>
</g>
<!-- PerfilComponent&#45;&gt;UsuarioModule -->
<g id="edge38" class="edge">
<title>PerfilComponent&#45;&gt;UsuarioModule</title>
<path fill="none" stroke="#000000" d="M3845,-122.2228C3845,-142.3652 3845,-172 3845,-172 3845,-172 1790.0675,-172 1790.0675,-172"/>
<polygon fill="#000000" stroke="#000000" points="1790.0675,-168.5001 1780.0675,-172 1790.0674,-175.5001 1790.0675,-168.5001"/>
</g>
</g>
</svg>
