<?xml version="1.0" encoding="UTF-8" standalone="no"?>
<!DOCTYPE svg PUBLIC "-//W3C//DTD SVG 1.1//EN"
 "http://www.w3.org/Graphics/SVG/1.1/DTD/svg11.dtd">
<!-- Generated by graphviz version 2.40.1 (20161225.0304)
 -->
<!-- Title: dependencies Pages: 1 -->
<svg width="5458pt" height="352pt"
 viewBox="0.00 0.00 5458.00 352.00" xmlns="http://www.w3.org/2000/svg" xmlns:xlink="http://www.w3.org/1999/xlink">
<g id="graph0" class="graph" transform="scale(1 1) rotate(0) translate(4 348)">
<title>dependencies</title>
<polygon fill="#ffffff" stroke="transparent" points="-4,4 -4,-348 5454,-348 5454,4 -4,4"/>
<text text-anchor="start" x="2704.0091" y="-42.4" font-family="sans-serif" font-weight="bold" font-size="14.00" fill="#000000">Legend</text>
<polygon fill="#ffffb3" stroke="transparent" points="2491,-10 2491,-30 2511,-30 2511,-10 2491,-10"/>
<text text-anchor="start" x="2514.629" y="-15.4" font-family="sans-serif" font-size="14.00" fill="#000000"> &#160;Declarations</text>
<polygon fill="#8dd3c7" stroke="transparent" points="2604,-10 2604,-30 2624,-30 2624,-10 2604,-10"/>
<text text-anchor="start" x="2627.7251" y="-15.4" font-family="sans-serif" font-size="14.00" fill="#000000"> &#160;Module</text>
<polygon fill="#80b1d3" stroke="transparent" points="2690,-10 2690,-30 2710,-30 2710,-10 2690,-10"/>
<text text-anchor="start" x="2713.7812" y="-15.4" font-family="sans-serif" font-size="14.00" fill="#000000"> &#160;Bootstrap</text>
<polygon fill="#fdb462" stroke="transparent" points="2787,-10 2787,-30 2807,-30 2807,-10 2787,-10"/>
<text text-anchor="start" x="2810.6732" y="-15.4" font-family="sans-serif" font-size="14.00" fill="#000000"> &#160;Providers</text>
<polygon fill="#fb8072" stroke="transparent" points="2883,-10 2883,-30 2903,-30 2903,-10 2883,-10"/>
<text text-anchor="start" x="2906.7258" y="-15.4" font-family="sans-serif" font-size="14.00" fill="#000000"> &#160;Exports</text>
<g id="clust1" class="cluster">
<title>cluster_AppModule</title>
<polygon fill="none" stroke="#000000" stroke-dasharray="1,5" points="8,-70 8,-336 1958,-336 1958,-70 8,-70"/>
</g>
<g id="clust2" class="cluster">
<title>cluster_AppModule_declarations</title>
<polygon fill="none" stroke="#000000" points="1512,-146 1512,-198 1950,-198 1950,-146 1512,-146"/>
</g>
<g id="clust6" class="cluster">
<title>cluster_AppModule_imports</title>
<polygon fill="none" stroke="#000000" points="882,-78 882,-198 1504,-198 1504,-78 882,-78"/>
</g>
<g id="clust8" class="cluster">
<title>cluster_AppModule_bootstrap</title>
<polygon fill="none" stroke="#000000" points="899,-276 899,-328 1023,-328 1023,-276 899,-276"/>
</g>
<g id="clust9" class="cluster">
<title>cluster_AppModule_providers</title>
<polygon fill="none" stroke="#000000" points="16,-146 16,-198 840,-198 840,-146 16,-146"/>
</g>
<g id="clust16" class="cluster">
<title>cluster_CarteleraModule</title>
<polygon fill="none" stroke="#000000" stroke-dasharray="1,5" points="1966,-70 1966,-138 2975,-138 2975,-70 1966,-70"/>
</g>
<g id="clust17" class="cluster">
<title>cluster_CarteleraModule_declarations</title>
<polygon fill="none" stroke="#000000" points="2134,-78 2134,-130 2967,-130 2967,-78 2134,-78"/>
</g>
<g id="clust24" class="cluster">
<title>cluster_CarteleraModule_exports</title>
<polygon fill="none" stroke="#000000" points="1974,-78 1974,-130 2126,-130 2126,-78 1974,-78"/>
</g>
<g id="clust27" class="cluster">
<title>cluster_HomeModule</title>
<polygon fill="none" stroke="#000000" stroke-dasharray="1,5" points="2983,-70 2983,-138 4007,-138 4007,-70 2983,-70"/>
</g>
<g id="clust28" class="cluster">
<title>cluster_HomeModule_declarations</title>
<polygon fill="none" stroke="#000000" points="3135,-78 3135,-130 3999,-130 3999,-78 3135,-78"/>
</g>
<g id="clust35" class="cluster">
<title>cluster_HomeModule_exports</title>
<polygon fill="none" stroke="#000000" points="2991,-78 2991,-130 3127,-130 3127,-78 2991,-78"/>
</g>
<g id="clust44" class="cluster">
<title>cluster_NotificacionesModule</title>
<polygon fill="none" stroke="#000000" stroke-dasharray="1,5" points="4015,-70 4015,-138 4209,-138 4209,-70 4015,-70"/>
</g>
<g id="clust45" class="cluster">
<title>cluster_NotificacionesModule_declarations</title>
<polygon fill="none" stroke="#000000" points="4023,-78 4023,-130 4201,-130 4201,-78 4023,-78"/>
</g>
<g id="clust51" class="cluster">
<title>cluster_PostModule</title>
<polygon fill="none" stroke="#000000" stroke-dasharray="1,5" points="4217,-70 4217,-138 4557,-138 4557,-70 4217,-70"/>
</g>
<g id="clust52" class="cluster">
<title>cluster_PostModule_declarations</title>
<polygon fill="none" stroke="#000000" points="4225,-78 4225,-130 4549,-130 4549,-78 4225,-78"/>
</g>
<g id="clust59" class="cluster">
<title>cluster_UsuarioModule</title>
<polygon fill="none" stroke="#000000" stroke-dasharray="1,5" points="4565,-70 4565,-138 5442,-138 5442,-70 4565,-70"/>
</g>
<g id="clust60" class="cluster">
<title>cluster_UsuarioModule_declarations</title>
<polygon fill="none" stroke="#000000" points="4573,-78 4573,-130 5434,-130 5434,-78 4573,-78"/>
</g>
<!-- AppComponent -->
<g id="node1" class="node">
<title>AppComponent</title>
<polygon fill="#ffffb3" stroke="#000000" points="1941.9399,-190 1836.0601,-190 1836.0601,-154 1941.9399,-154 1941.9399,-190"/>
<text text-anchor="middle" x="1889" y="-167.8" font-family="Times,serif" font-size="14.00" fill="#000000">AppComponent</text>
</g>
<!-- AppModule -->
<g id="node4" class="node">
<title>AppModule</title>
<polygon fill="#8dd3c7" stroke="#000000" points="1002.6571,-255 999.6571,-259 978.6571,-259 975.6571,-255 919.3429,-255 919.3429,-219 1002.6571,-219 1002.6571,-255"/>
<text text-anchor="middle" x="961" y="-232.8" font-family="Times,serif" font-size="14.00" fill="#000000">AppModule</text>
</g>
<!-- AppComponent&#45;&gt;AppModule -->
<g id="edge1" class="edge">
<title>AppComponent&#45;&gt;AppModule</title>
<path fill="none" stroke="#000000" d="M1889,-190.1532C1889,-213.7566 1889,-252 1889,-252 1889,-252 1012.6771,-252 1012.6771,-252"/>
<polygon fill="#000000" stroke="#000000" points="1012.6771,-248.5001 1002.6771,-252 1012.677,-255.5001 1012.6771,-248.5001"/>
</g>
<!-- LoginComponent -->
<g id="node2" class="node">
<title>LoginComponent</title>
<polygon fill="#ffffb3" stroke="#000000" points="1818.2758,-190 1703.7242,-190 1703.7242,-154 1818.2758,-154 1818.2758,-190"/>
<text text-anchor="middle" x="1761" y="-167.8" font-family="Times,serif" font-size="14.00" fill="#000000">LoginComponent</text>
</g>
<!-- LoginComponent&#45;&gt;AppModule -->
<g id="edge2" class="edge">
<title>LoginComponent&#45;&gt;AppModule</title>
<path fill="none" stroke="#000000" d="M1761,-190.0109C1761,-212.4852 1761,-248 1761,-248 1761,-248 1012.8851,-248 1012.8851,-248"/>
<polygon fill="#000000" stroke="#000000" points="1012.8851,-244.5001 1002.8851,-248 1012.8851,-251.5001 1012.8851,-244.5001"/>
</g>
<!-- PageNotFoundComponent -->
<g id="node3" class="node">
<title>PageNotFoundComponent</title>
<polygon fill="#ffffb3" stroke="#000000" points="1685.8243,-190 1520.1757,-190 1520.1757,-154 1685.8243,-154 1685.8243,-190"/>
<text text-anchor="middle" x="1603" y="-167.8" font-family="Times,serif" font-size="14.00" fill="#000000">PageNotFoundComponent</text>
</g>
<!-- PageNotFoundComponent&#45;&gt;AppModule -->
<g id="edge3" class="edge">
<title>PageNotFoundComponent&#45;&gt;AppModule</title>
<path fill="none" stroke="#000000" d="M1603,-190.0449C1603,-211.6623 1603,-245 1603,-245 1603,-245 1013.1234,-245 1013.1234,-245"/>
<polygon fill="#000000" stroke="#000000" points="1013.1234,-241.5001 1003.1234,-245 1013.1234,-248.5001 1013.1234,-241.5001"/>
</g>
<!-- AppComponent  -->
<g id="node12" class="node">
<title>AppComponent </title>
<polygon fill="#80b1d3" stroke="#000000" points="1015.439,-320 906.561,-320 906.561,-284 1015.439,-284 1015.439,-320"/>
<text text-anchor="middle" x="961" y="-297.8" font-family="Times,serif" font-size="14.00" fill="#000000">AppComponent </text>
</g>
<!-- AppModule&#45;&gt;AppComponent  -->
<g id="edge11" class="edge">
<title>AppModule&#45;&gt;AppComponent </title>
<path fill="none" stroke="#000000" stroke-dasharray="1,5" d="M961,-255.1061C961,-255.1061 961,-273.991 961,-273.991"/>
<polygon fill="#000000" stroke="#000000" points="957.5001,-273.9909 961,-283.991 964.5001,-273.991 957.5001,-273.9909"/>
</g>
<!-- AppRoutingModule -->
<g id="node5" class="node">
<title>AppRoutingModule</title>
<polygon fill="#8dd3c7" stroke="#000000" points="1161.2744,-122 1158.2744,-126 1137.2744,-126 1134.2744,-122 1032.7256,-122 1032.7256,-86 1161.2744,-86 1161.2744,-122"/>
<text text-anchor="middle" x="1097" y="-99.8" font-family="Times,serif" font-size="14.00" fill="#000000">AppRoutingModule</text>
</g>
<!-- AppRoutingModule&#45;&gt;AppModule -->
<g id="edge4" class="edge">
<title>AppRoutingModule&#45;&gt;AppModule</title>
<path fill="none" stroke="#000000" d="M1043.9219,-122.0735C1043.9219,-155.3634 1043.9219,-223 1043.9219,-223 1043.9219,-223 1012.9468,-223 1012.9468,-223"/>
<polygon fill="#000000" stroke="#000000" points="1012.9468,-219.5001 1002.9468,-223 1012.9468,-226.5001 1012.9468,-219.5001"/>
</g>
<!-- CarteleraModule -->
<g id="node6" class="node">
<title>CarteleraModule</title>
<polygon fill="#8dd3c7" stroke="#000000" points="1160.3473,-190 1157.3473,-194 1136.3473,-194 1133.3473,-190 1049.6527,-190 1049.6527,-154 1160.3473,-154 1160.3473,-190"/>
<text text-anchor="middle" x="1105" y="-167.8" font-family="Times,serif" font-size="14.00" fill="#000000">CarteleraModule</text>
</g>
<!-- AppRoutingModule&#45;&gt;CarteleraModule -->
<g id="edge22" class="edge">
<title>AppRoutingModule&#45;&gt;CarteleraModule</title>
<path fill="none" stroke="#000000" d="M1060.6611,-122.2228C1060.6611,-122.2228 1060.6611,-143.7269 1060.6611,-143.7269"/>
<polygon fill="#000000" stroke="#000000" points="1057.1612,-143.7269 1060.6611,-153.7269 1064.1612,-143.727 1057.1612,-143.7269"/>
</g>
<!-- HomeModule -->
<g id="node7" class="node">
<title>HomeModule</title>
<polygon fill="#8dd3c7" stroke="#000000" points="1271.7619,-190 1268.7619,-194 1247.7619,-194 1244.7619,-190 1178.2381,-190 1178.2381,-154 1271.7619,-154 1271.7619,-190"/>
<text text-anchor="middle" x="1225" y="-167.8" font-family="Times,serif" font-size="14.00" fill="#000000">HomeModule</text>
</g>
<!-- AppRoutingModule&#45;&gt;HomeModule -->
<g id="edge30" class="edge">
<title>AppRoutingModule&#45;&gt;HomeModule</title>
<path fill="none" stroke="#000000" d="M1161.4745,-110C1164.8976,-110 1166.9645,-110 1166.9645,-110 1166.9645,-110 1166.9645,-178 1166.9645,-178 1166.9645,-178 1168.1543,-178 1168.1543,-178"/>
<polygon fill="#000000" stroke="#000000" points="1168.1543,-181.5001 1178.1543,-178 1168.1543,-174.5001 1168.1543,-181.5001"/>
</g>
<!-- NotificacionesModule -->
<g id="node9" class="node">
<title>NotificacionesModule</title>
<polygon fill="#8dd3c7" stroke="#000000" points="1031.6825,-190 1028.6825,-194 1007.6825,-194 1004.6825,-190 890.3175,-190 890.3175,-154 1031.6825,-154 1031.6825,-190"/>
<text text-anchor="middle" x="961" y="-167.8" font-family="Times,serif" font-size="14.00" fill="#000000">NotificacionesModule</text>
</g>
<!-- AppRoutingModule&#45;&gt;NotificacionesModule -->
<g id="edge34" class="edge">
<title>AppRoutingModule&#45;&gt;NotificacionesModule</title>
<path fill="none" stroke="#000000" d="M1038.2674,-122.2228C1038.2674,-142.3652 1038.2674,-172 1038.2674,-172 1038.2674,-172 1037.6086,-172 1037.6086,-172"/>
<polygon fill="#000000" stroke="#000000" points="1041.6797,-168.5002 1031.6796,-172 1041.6796,-175.5002 1041.6797,-168.5002"/>
</g>
<!-- PostModule -->
<g id="node10" class="node">
<title>PostModule</title>
<polygon fill="#8dd3c7" stroke="#000000" points="1373.6683,-190 1370.6683,-194 1349.6683,-194 1346.6683,-190 1290.3317,-190 1290.3317,-154 1373.6683,-154 1373.6683,-190"/>
<text text-anchor="middle" x="1332" y="-167.8" font-family="Times,serif" font-size="14.00" fill="#000000">PostModule</text>
</g>
<!-- AppRoutingModule&#45;&gt;PostModule -->
<g id="edge38" class="edge">
<title>AppRoutingModule&#45;&gt;PostModule</title>
<path fill="none" stroke="#000000" d="M1127.1694,-122.2458C1127.1694,-136.1772 1127.1694,-153 1127.1694,-153 1127.1694,-153 1311.0831,-153 1311.0831,-153 1311.0831,-153 1311.0831,-153.0816 1311.0831,-153.0816"/>
<polygon fill="#000000" stroke="#000000" points="1307.5845,-143.8159 1311.0831,-153.8164 1314.5845,-143.8169 1307.5845,-143.8159"/>
</g>
<!-- UsuarioModule -->
<g id="node11" class="node">
<title>UsuarioModule</title>
<polygon fill="#8dd3c7" stroke="#000000" points="1495.8669,-190 1492.8669,-194 1471.8669,-194 1468.8669,-190 1392.1331,-190 1392.1331,-154 1495.8669,-154 1495.8669,-190"/>
<text text-anchor="middle" x="1444" y="-167.8" font-family="Times,serif" font-size="14.00" fill="#000000">UsuarioModule</text>
</g>
<!-- AppRoutingModule&#45;&gt;UsuarioModule -->
<g id="edge45" class="edge">
<title>AppRoutingModule&#45;&gt;UsuarioModule</title>
<path fill="none" stroke="#000000" d="M1138.2542,-122.037C1138.2542,-135.2913 1138.2542,-151 1138.2542,-151 1138.2542,-151 1426.6889,-151 1426.6889,-151 1426.6889,-151 1426.6889,-151.292 1426.6889,-151.292"/>
<polygon fill="#000000" stroke="#000000" points="1423.1892,-143.9198 1426.6889,-153.92 1430.1892,-143.9201 1423.1892,-143.9198"/>
</g>
<!-- CarteleraModule&#45;&gt;AppModule -->
<g id="edge5" class="edge">
<title>CarteleraModule&#45;&gt;AppModule</title>
<path fill="none" stroke="#000000" d="M1105,-190.0091C1105,-206.0494 1105,-227 1105,-227 1105,-227 1013.0379,-227 1013.0379,-227"/>
<polygon fill="#000000" stroke="#000000" points="1013.0379,-223.5001 1003.0379,-227 1013.0378,-230.5001 1013.0379,-223.5001"/>
</g>
<!-- CarteleraComponent  -->
<g id="node23" class="node">
<title>CarteleraComponent </title>
<polygon fill="#fb8072" stroke="#000000" points="2118.1299,-122 1981.8701,-122 1981.8701,-86 2118.1299,-86 2118.1299,-122"/>
<text text-anchor="middle" x="2050" y="-99.8" font-family="Times,serif" font-size="14.00" fill="#000000">CarteleraComponent </text>
</g>
<!-- CarteleraModule&#45;&gt;CarteleraComponent  -->
<g id="edge24" class="edge">
<title>CarteleraModule&#45;&gt;CarteleraComponent </title>
<path fill="none" stroke="#000000" stroke-dasharray="5,2" d="M1149.3389,-153.8495C1149.3389,-141.7292 1149.3389,-128 1149.3389,-128 1149.3389,-128 2050,-128 2050,-128 2050,-128 2050,-127.419 2050,-127.419"/>
<polygon fill="#000000" stroke="#000000" points="2053.5002,-132.1902 2050,-122.1903 2046.5002,-132.1903 2053.5002,-132.1902"/>
</g>
<!-- HomeModule&#45;&gt;AppModule -->
<g id="edge6" class="edge">
<title>HomeModule&#45;&gt;AppModule</title>
<path fill="none" stroke="#000000" d="M1240.6269,-190.0336C1240.6269,-207.0597 1240.6269,-230 1240.6269,-230 1240.6269,-230 1012.863,-230 1012.863,-230"/>
<polygon fill="#000000" stroke="#000000" points="1012.863,-226.5001 1002.863,-230 1012.8629,-233.5001 1012.863,-226.5001"/>
</g>
<!-- HomeComponent  -->
<g id="node29" class="node">
<title>HomeComponent </title>
<polygon fill="#fb8072" stroke="#000000" points="3118.5442,-122 2999.4558,-122 2999.4558,-86 3118.5442,-86 3118.5442,-122"/>
<text text-anchor="middle" x="3059" y="-99.8" font-family="Times,serif" font-size="14.00" fill="#000000">HomeComponent </text>
</g>
<!-- HomeModule&#45;&gt;HomeComponent  -->
<g id="edge32" class="edge">
<title>HomeModule&#45;&gt;HomeComponent </title>
<path fill="none" stroke="#000000" stroke-dasharray="5,2" d="M1260.335,-153.8056C1260.335,-145.7218 1260.335,-138 1260.335,-138 1260.335,-138 3059,-138 3059,-138 3059,-138 3059,-132.1944 3059,-132.1944"/>
<polygon fill="#000000" stroke="#000000" points="3062.5001,-132.1944 3059,-122.1944 3055.5001,-132.1945 3062.5001,-132.1944"/>
</g>
<!-- MaterialModule -->
<g id="node8" class="node">
<title>MaterialModule</title>
<polygon fill="#8dd3c7" stroke="#000000" points="1286.4706,-122 1283.4706,-126 1262.4706,-126 1259.4706,-122 1179.5294,-122 1179.5294,-86 1286.4706,-86 1286.4706,-122"/>
<text text-anchor="middle" x="1233" y="-99.8" font-family="Times,serif" font-size="14.00" fill="#000000">MaterialModule</text>
</g>
<!-- MaterialModule&#45;&gt;AppModule -->
<g id="edge7" class="edge">
<title>MaterialModule&#45;&gt;AppModule</title>
<path fill="none" stroke="#000000" d="M1276.749,-122.0759C1276.749,-157.7964 1276.749,-234 1276.749,-234 1276.749,-234 1012.929,-234 1012.929,-234"/>
<polygon fill="#000000" stroke="#000000" points="1012.9291,-230.5001 1002.929,-234 1012.929,-237.5001 1012.9291,-230.5001"/>
</g>
<!-- MaterialModule&#45;&gt;CarteleraModule -->
<g id="edge23" class="edge">
<title>MaterialModule&#45;&gt;CarteleraModule</title>
<path fill="none" stroke="#000000" d="M1179.4772,-98C1175.2319,-98 1172.5418,-98 1172.5418,-98 1172.5418,-98 1172.5418,-166 1172.5418,-166 1172.5418,-166 1170.4667,-166 1170.4667,-166"/>
<polygon fill="#000000" stroke="#000000" points="1170.4667,-162.5001 1160.4667,-166 1170.4667,-169.5001 1170.4667,-162.5001"/>
</g>
<!-- MaterialModule&#45;&gt;HomeModule -->
<g id="edge31" class="edge">
<title>MaterialModule&#45;&gt;HomeModule</title>
<path fill="none" stroke="#000000" d="M1202.6062,-122.2228C1202.6062,-122.2228 1202.6062,-143.7269 1202.6062,-143.7269"/>
<polygon fill="#000000" stroke="#000000" points="1199.1063,-143.7269 1202.6062,-153.7269 1206.1063,-143.727 1199.1063,-143.7269"/>
</g>
<!-- MaterialModule&#45;&gt;NotificacionesModule -->
<g id="edge35" class="edge">
<title>MaterialModule&#45;&gt;NotificacionesModule</title>
<path fill="none" stroke="#000000" d="M1191.0605,-122.1543C1191.0605,-123.2969 1191.0605,-124 1191.0605,-124 1191.0605,-124 937.4696,-124 937.4696,-124 937.4696,-124 937.4696,-143.8533 937.4696,-143.8533"/>
<polygon fill="#000000" stroke="#000000" points="933.9697,-143.8532 937.4696,-153.8533 940.9697,-143.8533 933.9697,-143.8532"/>
</g>
<!-- MaterialModule&#45;&gt;PostModule -->
<g id="edge39" class="edge">
<title>MaterialModule&#45;&gt;PostModule</title>
<path fill="none" stroke="#000000" d="M1281.6171,-122.2228C1281.6171,-142.3652 1281.6171,-172 1281.6171,-172 1281.6171,-172 1282.4491,-172 1282.4491,-172"/>
<polygon fill="#000000" stroke="#000000" points="1279.9369,-175.5001 1289.9368,-172 1279.9368,-168.5001 1279.9369,-175.5001"/>
</g>
<!-- MaterialModule&#45;&gt;UsuarioModule -->
<g id="edge46" class="edge">
<title>MaterialModule&#45;&gt;UsuarioModule</title>
<path fill="none" stroke="#000000" d="M1286.5288,-104C1354.0107,-104 1461.3111,-104 1461.3111,-104 1461.3111,-104 1461.3111,-143.7772 1461.3111,-143.7772"/>
<polygon fill="#000000" stroke="#000000" points="1457.8112,-143.7772 1461.3111,-153.7772 1464.8112,-143.7773 1457.8112,-143.7772"/>
</g>
<!-- NotificacionesModule&#45;&gt;AppModule -->
<g id="edge8" class="edge">
<title>NotificacionesModule&#45;&gt;AppModule</title>
<path fill="none" stroke="#000000" d="M961,-190.1061C961,-190.1061 961,-208.991 961,-208.991"/>
<polygon fill="#000000" stroke="#000000" points="957.5001,-208.9909 961,-218.991 964.5001,-208.991 957.5001,-208.9909"/>
</g>
<!-- PostModule&#45;&gt;AppModule -->
<g id="edge9" class="edge">
<title>PostModule&#45;&gt;AppModule</title>
<path fill="none" stroke="#000000" d="M1332,-190.1061C1332,-209.3391 1332,-237 1332,-237 1332,-237 1012.8372,-237 1012.8372,-237"/>
<polygon fill="#000000" stroke="#000000" points="1012.8373,-233.5001 1002.8372,-237 1012.8372,-240.5001 1012.8373,-233.5001"/>
</g>
<!-- UsuarioModule&#45;&gt;AppModule -->
<g id="edge10" class="edge">
<title>UsuarioModule&#45;&gt;AppModule</title>
<path fill="none" stroke="#000000" d="M1481.0953,-190.1289C1481.0953,-210.5724 1481.0953,-241 1481.0953,-241 1481.0953,-241 1012.6824,-241 1012.6824,-241"/>
<polygon fill="#000000" stroke="#000000" points="1012.6824,-237.5001 1002.6824,-241 1012.6824,-244.5001 1012.6824,-237.5001"/>
</g>
<!-- AuthInterceptor -->
<g id="node13" class="node">
<title>AuthInterceptor</title>
<ellipse fill="#fdb462" stroke="#000000" cx="759" cy="-172" rx="72.9121" ry="18"/>
<text text-anchor="middle" x="759" y="-167.8" font-family="Times,serif" font-size="14.00" fill="#000000">AuthInterceptor</text>
</g>
<!-- AuthInterceptor&#45;&gt;AppModule -->
<g id="edge12" class="edge">
<title>AuthInterceptor&#45;&gt;AppModule</title>
<path fill="none" stroke="#000000" d="M759,-190.2396C759,-205.5706 759,-225 759,-225 759,-225 909.1455,-225 909.1455,-225"/>
<polygon fill="#000000" stroke="#000000" points="909.1455,-228.5001 919.1455,-225 909.1454,-221.5001 909.1455,-228.5001"/>
</g>
<!-- AuthService -->
<g id="node14" class="node">
<title>AuthService</title>
<ellipse fill="#fdb462" stroke="#000000" cx="609" cy="-172" rx="59.1083" ry="18"/>
<text text-anchor="middle" x="609" y="-167.8" font-family="Times,serif" font-size="14.00" fill="#000000">AuthService</text>
</g>
<!-- AuthService&#45;&gt;AppModule -->
<g id="edge13" class="edge">
<title>AuthService&#45;&gt;AppModule</title>
<path fill="none" stroke="#000000" d="M609,-190.0225C609,-207.3734 609,-231 609,-231 609,-231 909.2387,-231 909.2387,-231"/>
<polygon fill="#000000" stroke="#000000" points="909.2387,-234.5001 919.2387,-231 909.2387,-227.5001 909.2387,-234.5001"/>
</g>
<!-- CarteleraService -->
<g id="node15" class="node">
<title>CarteleraService</title>
<ellipse fill="#fdb462" stroke="#000000" cx="456" cy="-172" rx="75.252" ry="18"/>
<text text-anchor="middle" x="456" y="-167.8" font-family="Times,serif" font-size="14.00" fill="#000000">CarteleraService</text>
</g>
<!-- CarteleraService&#45;&gt;AppModule -->
<g id="edge14" class="edge">
<title>CarteleraService&#45;&gt;AppModule</title>
<path fill="none" stroke="#000000" d="M456,-190.1061C456,-209.3391 456,-237 456,-237 456,-237 909.2441,-237 909.2441,-237"/>
<polygon fill="#000000" stroke="#000000" points="909.2441,-240.5001 919.2441,-237 909.2441,-233.5001 909.2441,-240.5001"/>
</g>
<!-- LocalStorageService -->
<g id="node16" class="node">
<title>LocalStorageService</title>
<ellipse fill="#fdb462" stroke="#000000" cx="271" cy="-172" rx="91.4481" ry="18"/>
<text text-anchor="middle" x="271" y="-167.8" font-family="Times,serif" font-size="14.00" fill="#000000">LocalStorageService</text>
</g>
<!-- LocalStorageService&#45;&gt;AppModule -->
<g id="edge15" class="edge">
<title>LocalStorageService&#45;&gt;AppModule</title>
<path fill="none" stroke="#000000" d="M271,-190.2843C271,-211.3211 271,-243 271,-243 271,-243 909.134,-243 909.134,-243"/>
<polygon fill="#000000" stroke="#000000" points="909.1341,-246.5001 919.134,-243 909.134,-239.5001 909.1341,-246.5001"/>
</g>
<!-- ToasterService -->
<g id="node17" class="node">
<title>ToasterService</title>
<ellipse fill="#fdb462" stroke="#000000" cx="93" cy="-172" rx="68.8946" ry="18"/>
<text text-anchor="middle" x="93" y="-167.8" font-family="Times,serif" font-size="14.00" fill="#000000">ToasterService</text>
</g>
<!-- ToasterService&#45;&gt;AppModule -->
<g id="edge16" class="edge">
<title>ToasterService&#45;&gt;AppModule</title>
<path fill="none" stroke="#000000" d="M93,-190.2479C93,-213.0179 93,-249 93,-249 93,-249 909.1346,-249 909.1346,-249"/>
<polygon fill="#000000" stroke="#000000" points="909.1346,-252.5001 919.1346,-249 909.1345,-245.5001 909.1346,-252.5001"/>
</g>
<!-- AdministrarPermisosComponent -->
<g id="node18" class="node">
<title>AdministrarPermisosComponent</title>
<polygon fill="#ffffb3" stroke="#000000" points="2342.3102,-122 2141.6898,-122 2141.6898,-86 2342.3102,-86 2342.3102,-122"/>
<text text-anchor="middle" x="2242" y="-99.8" font-family="Times,serif" font-size="14.00" fill="#000000">AdministrarPermisosComponent</text>
</g>
<!-- AdministrarPermisosComponent&#45;&gt;CarteleraModule -->
<g id="edge17" class="edge">
<title>AdministrarPermisosComponent&#45;&gt;CarteleraModule</title>
<path fill="none" stroke="#000000" d="M2242,-122.0579C2242,-126.4945 2242,-130 2242,-130 2242,-130 1071.7458,-130 1071.7458,-130 1071.7458,-130 1071.7458,-143.9445 1071.7458,-143.9445"/>
<polygon fill="#000000" stroke="#000000" points="1068.2459,-143.9444 1071.7458,-153.9445 1075.2459,-143.9445 1068.2459,-143.9444"/>
</g>
<!-- CarteleraComponent -->
<g id="node19" class="node">
<title>CarteleraComponent</title>
<polygon fill="#ffffb3" stroke="#000000" points="2959.1303,-122 2826.8697,-122 2826.8697,-86 2959.1303,-86 2959.1303,-122"/>
<text text-anchor="middle" x="2893" y="-99.8" font-family="Times,serif" font-size="14.00" fill="#000000">CarteleraComponent</text>
</g>
<!-- CarteleraComponent&#45;&gt;CarteleraModule -->
<g id="edge18" class="edge">
<title>CarteleraComponent&#45;&gt;CarteleraModule</title>
<path fill="none" stroke="#000000" d="M2893,-122.0449C2893,-129.749 2893,-137 2893,-137 2893,-137 1116.0847,-137 1116.0847,-137 1116.0847,-137 1116.0847,-143.68 1116.0847,-143.68"/>
<polygon fill="#000000" stroke="#000000" points="1112.5848,-143.6799 1116.0847,-153.68 1119.5848,-143.68 1112.5848,-143.6799"/>
</g>
<!-- CreatePostComponent -->
<g id="node20" class="node">
<title>CreatePostComponent</title>
<polygon fill="#ffffb3" stroke="#000000" points="2808.9818,-122 2667.0182,-122 2667.0182,-86 2808.9818,-86 2808.9818,-122"/>
<text text-anchor="middle" x="2738" y="-99.8" font-family="Times,serif" font-size="14.00" fill="#000000">CreatePostComponent</text>
</g>
<!-- CreatePostComponent&#45;&gt;CarteleraModule -->
<g id="edge19" class="edge">
<title>CreatePostComponent&#45;&gt;CarteleraModule</title>
<path fill="none" stroke="#000000" d="M2738,-122.0328C2738,-128.8526 2738,-135 2738,-135 2738,-135 1105,-135 1105,-135 1105,-135 1105,-143.9336 1105,-143.9336"/>
<polygon fill="#000000" stroke="#000000" points="1101.5001,-143.9335 1105,-153.9336 1108.5001,-143.9336 1101.5001,-143.9335"/>
</g>
<!-- DeletePostComponent -->
<g id="node21" class="node">
<title>DeletePostComponent</title>
<polygon fill="#ffffb3" stroke="#000000" points="2648.9818,-122 2507.0182,-122 2507.0182,-86 2648.9818,-86 2648.9818,-122"/>
<text text-anchor="middle" x="2578" y="-99.8" font-family="Times,serif" font-size="14.00" fill="#000000">DeletePostComponent</text>
</g>
<!-- DeletePostComponent&#45;&gt;CarteleraModule -->
<g id="edge20" class="edge">
<title>DeletePostComponent&#45;&gt;CarteleraModule</title>
<path fill="none" stroke="#000000" d="M2578,-122.2015C2578,-128.028 2578,-133 2578,-133 2578,-133 1093.9153,-133 1093.9153,-133 1093.9153,-133 1093.9153,-143.8701 1093.9153,-143.8701"/>
<polygon fill="#000000" stroke="#000000" points="1090.4154,-143.8701 1093.9153,-153.8701 1097.4154,-143.8701 1090.4154,-143.8701"/>
</g>
<!-- EditPostComponent -->
<g id="node22" class="node">
<title>EditPostComponent</title>
<polygon fill="#ffffb3" stroke="#000000" points="2489.2842,-122 2360.7158,-122 2360.7158,-86 2489.2842,-86 2489.2842,-122"/>
<text text-anchor="middle" x="2425" y="-99.8" font-family="Times,serif" font-size="14.00" fill="#000000">EditPostComponent</text>
</g>
<!-- EditPostComponent&#45;&gt;CarteleraModule -->
<g id="edge21" class="edge">
<title>EditPostComponent&#45;&gt;CarteleraModule</title>
<path fill="none" stroke="#000000" d="M2425,-122.1592C2425,-127.0433 2425,-131 2425,-131 2425,-131 1082.8306,-131 1082.8306,-131 1082.8306,-131 1082.8306,-143.8975 1082.8306,-143.8975"/>
<polygon fill="#000000" stroke="#000000" points="1079.3307,-143.8974 1082.8306,-153.8975 1086.3307,-143.8975 1079.3307,-143.8974"/>
</g>
<!-- CreateCarteleraComponent -->
<g id="node24" class="node">
<title>CreateCarteleraComponent</title>
<polygon fill="#ffffb3" stroke="#000000" points="3312.6615,-122 3143.3385,-122 3143.3385,-86 3312.6615,-86 3312.6615,-122"/>
<text text-anchor="middle" x="3228" y="-99.8" font-family="Times,serif" font-size="14.00" fill="#000000">CreateCarteleraComponent</text>
</g>
<!-- CreateCarteleraComponent&#45;&gt;HomeModule -->
<g id="edge25" class="edge">
<title>CreateCarteleraComponent&#45;&gt;HomeModule</title>
<path fill="none" stroke="#000000" d="M3228,-122.4218C3228,-131.2791 3228,-140 3228,-140 3228,-140 1214.152,-140 1214.152,-140 1214.152,-140 1214.152,-143.7566 1214.152,-143.7566"/>
<polygon fill="#000000" stroke="#000000" points="1210.6521,-143.7566 1214.152,-153.7566 1217.6521,-143.7566 1210.6521,-143.7566"/>
</g>
<!-- DeleteCarteleraComponent -->
<g id="node25" class="node">
<title>DeleteCarteleraComponent</title>
<polygon fill="#ffffb3" stroke="#000000" points="3990.6615,-122 3821.3385,-122 3821.3385,-86 3990.6615,-86 3990.6615,-122"/>
<text text-anchor="middle" x="3906" y="-99.8" font-family="Times,serif" font-size="14.00" fill="#000000">DeleteCarteleraComponent</text>
</g>
<!-- DeleteCarteleraComponent&#45;&gt;HomeModule -->
<g id="edge26" class="edge">
<title>DeleteCarteleraComponent&#45;&gt;HomeModule</title>
<path fill="none" stroke="#000000" d="M3906,-122.3294C3906,-153.8565 3906,-215 3906,-215 3906,-215 1209.3731,-215 1209.3731,-215 1209.3731,-215 1209.3731,-200.4854 1209.3731,-200.4854"/>
<polygon fill="#000000" stroke="#000000" points="1212.8732,-200.4854 1209.3731,-190.4854 1205.8732,-200.4855 1212.8732,-200.4854"/>
</g>
<!-- EditCarteleraComponent -->
<g id="node26" class="node">
<title>EditCarteleraComponent</title>
<polygon fill="#ffffb3" stroke="#000000" points="3802.9636,-122 3647.0364,-122 3647.0364,-86 3802.9636,-86 3802.9636,-122"/>
<text text-anchor="middle" x="3725" y="-99.8" font-family="Times,serif" font-size="14.00" fill="#000000">EditCarteleraComponent</text>
</g>
<!-- EditCarteleraComponent&#45;&gt;HomeModule -->
<g id="edge27" class="edge">
<title>EditCarteleraComponent&#45;&gt;HomeModule</title>
<path fill="none" stroke="#000000" d="M3725,-122.0555C3725,-133.439 3725,-146 3725,-146 3725,-146 1248.7893,-146 1248.7893,-146 1248.7893,-146 1248.7893,-146.7942 1248.7893,-146.7942"/>
<polygon fill="#000000" stroke="#000000" points="1245.2894,-143.9421 1248.7893,-153.9421 1252.2894,-143.9422 1245.2894,-143.9421"/>
</g>
<!-- HomeComponent -->
<g id="node27" class="node">
<title>HomeComponent</title>
<polygon fill="#ffffb3" stroke="#000000" points="3628.5451,-122 3513.4549,-122 3513.4549,-86 3628.5451,-86 3628.5451,-122"/>
<text text-anchor="middle" x="3571" y="-99.8" font-family="Times,serif" font-size="14.00" fill="#000000">HomeComponent</text>
</g>
<!-- HomeComponent&#45;&gt;HomeModule -->
<g id="edge28" class="edge">
<title>HomeComponent&#45;&gt;HomeModule</title>
<path fill="none" stroke="#000000" d="M3571,-122.1274C3571,-132.7109 3571,-144 3571,-144 3571,-144 1237.2435,-144 1237.2435,-144 1237.2435,-144 1237.2435,-144.9793 1237.2435,-144.9793"/>
<polygon fill="#000000" stroke="#000000" points="1233.7436,-143.793 1237.2435,-153.793 1240.7436,-143.7931 1233.7436,-143.793"/>
</g>
<!-- VerSeguidoresComponent -->
<g id="node28" class="node">
<title>VerSeguidoresComponent</title>
<polygon fill="#ffffb3" stroke="#000000" points="3495.0225,-122 3330.9775,-122 3330.9775,-86 3495.0225,-86 3495.0225,-122"/>
<text text-anchor="middle" x="3413" y="-99.8" font-family="Times,serif" font-size="14.00" fill="#000000">VerSeguidoresComponent</text>
</g>
<!-- VerSeguidoresComponent&#45;&gt;HomeModule -->
<g id="edge29" class="edge">
<title>VerSeguidoresComponent&#45;&gt;HomeModule</title>
<path fill="none" stroke="#000000" d="M3413,-122.1097C3413,-131.897 3413,-142 3413,-142 3413,-142 1225.6977,-142 1225.6977,-142 1225.6977,-142 1225.6977,-143.8568 1225.6977,-143.8568"/>
<polygon fill="#000000" stroke="#000000" points="1222.1978,-143.8568 1225.6977,-153.8568 1229.1978,-143.8568 1222.1978,-143.8568"/>
</g>
<!-- NotificacionesComponent -->
<g id="node30" class="node">
<title>NotificacionesComponent</title>
<polygon fill="#ffffb3" stroke="#000000" points="4193.465,-122 4030.535,-122 4030.535,-86 4193.465,-86 4193.465,-122"/>
<text text-anchor="middle" x="4112" y="-99.8" font-family="Times,serif" font-size="14.00" fill="#000000">NotificacionesComponent</text>
</g>
<!-- NotificacionesComponent&#45;&gt;NotificacionesModule -->
<g id="edge33" class="edge">
<title>NotificacionesComponent&#45;&gt;NotificacionesModule</title>
<path fill="none" stroke="#000000" d="M4112,-122.1679C4112,-124.4478 4112,-126 4112,-126 4112,-126 984.5304,-126 984.5304,-126 984.5304,-126 984.5304,-143.8196 984.5304,-143.8196"/>
<polygon fill="#000000" stroke="#000000" points="981.0305,-143.8195 984.5304,-153.8196 988.0305,-143.8196 981.0305,-143.8195"/>
</g>
<!-- DeleteComentarioComponent -->
<g id="node31" class="node">
<title>DeleteComentarioComponent</title>
<polygon fill="#ffffb3" stroke="#000000" points="4540.9622,-122 4357.0378,-122 4357.0378,-86 4540.9622,-86 4540.9622,-122"/>
<text text-anchor="middle" x="4449" y="-99.8" font-family="Times,serif" font-size="14.00" fill="#000000">DeleteComentarioComponent</text>
</g>
<!-- DeleteComentarioComponent&#45;&gt;PostModule -->
<g id="edge36" class="edge">
<title>DeleteComentarioComponent&#45;&gt;PostModule</title>
<path fill="none" stroke="#000000" d="M4449,-122.0439C4449,-134.5633 4449,-149 4449,-149 4449,-149 1352.9169,-149 1352.9169,-149 1352.9169,-149 1352.9169,-149.4878 1352.9169,-149.4878"/>
<polygon fill="#000000" stroke="#000000" points="1349.4171,-143.8776 1352.9169,-153.8777 1356.4171,-143.8778 1349.4171,-143.8776"/>
</g>
<!-- PostComponent -->
<g id="node32" class="node">
<title>PostComponent</title>
<polygon fill="#ffffb3" stroke="#000000" points="4338.9512,-122 4233.0488,-122 4233.0488,-86 4338.9512,-86 4338.9512,-122"/>
<text text-anchor="middle" x="4286" y="-99.8" font-family="Times,serif" font-size="14.00" fill="#000000">PostComponent</text>
</g>
<!-- PostComponent&#45;&gt;PostModule -->
<g id="edge37" class="edge">
<title>PostComponent&#45;&gt;PostModule</title>
<path fill="none" stroke="#000000" d="M4286,-122.4854C4286,-134.1399 4286,-147 4286,-147 4286,-147 1332,-147 1332,-147 1332,-147 1332,-147.6831 1332,-147.6831"/>
<polygon fill="#000000" stroke="#000000" points="1328.5002,-143.8313 1332,-153.8314 1335.5002,-143.8314 1328.5002,-143.8313"/>
</g>
<!-- CartelerasCreadasComponent -->
<g id="node33" class="node">
<title>CartelerasCreadasComponent</title>
<polygon fill="#ffffb3" stroke="#000000" points="4764.6601,-122 4581.3399,-122 4581.3399,-86 4764.6601,-86 4764.6601,-122"/>
<text text-anchor="middle" x="4673" y="-99.8" font-family="Times,serif" font-size="14.00" fill="#000000">CartelerasCreadasComponent</text>
</g>
<!-- CartelerasCreadasComponent&#45;&gt;UsuarioModule -->
<g id="edge40" class="edge">
<title>CartelerasCreadasComponent&#45;&gt;UsuarioModule</title>
<path fill="none" stroke="#000000" d="M4673,-122.4152C4673,-149.0057 4673,-195 4673,-195 4673,-195 1466.2572,-195 1466.2572,-195 1466.2572,-195 1466.2572,-194.5122 1466.2572,-194.5122"/>
<polygon fill="#000000" stroke="#000000" points="1469.7574,-200.1222 1466.2572,-190.1223 1462.7574,-200.1224 1469.7574,-200.1222"/>
</g>
<!-- CartelerasSeguidasComponent -->
<g id="node34" class="node">
<title>CartelerasSeguidasComponent</title>
<polygon fill="#ffffb3" stroke="#000000" points="5426.1218,-122 5237.8782,-122 5237.8782,-86 5426.1218,-86 5426.1218,-122"/>
<text text-anchor="middle" x="5332" y="-99.8" font-family="Times,serif" font-size="14.00" fill="#000000">CartelerasSeguidasComponent</text>
</g>
<!-- CartelerasSeguidasComponent&#45;&gt;UsuarioModule -->
<g id="edge41" class="edge">
<title>CartelerasSeguidasComponent&#45;&gt;UsuarioModule</title>
<path fill="none" stroke="#000000" d="M5332,-122.1511C5332,-152.6787 5332,-211 5332,-211 5332,-211 1406.9047,-211 1406.9047,-211 1406.9047,-211 1406.9047,-200.1299 1406.9047,-200.1299"/>
<polygon fill="#000000" stroke="#000000" points="1410.4048,-200.1299 1406.9047,-190.1299 1403.4048,-200.1299 1410.4048,-200.1299"/>
</g>
<!-- EditUserComponent -->
<g id="node35" class="node">
<title>EditUserComponent</title>
<polygon fill="#ffffb3" stroke="#000000" points="5219.5926,-122 5088.4074,-122 5088.4074,-86 5219.5926,-86 5219.5926,-122"/>
<text text-anchor="middle" x="5154" y="-99.8" font-family="Times,serif" font-size="14.00" fill="#000000">EditUserComponent</text>
</g>
<!-- EditUserComponent&#45;&gt;UsuarioModule -->
<g id="edge42" class="edge">
<title>EditUserComponent&#45;&gt;UsuarioModule</title>
<path fill="none" stroke="#000000" d="M5154,-122.4143C5154,-152.0408 5154,-207 5154,-207 5154,-207 1421.7428,-207 1421.7428,-207 1421.7428,-207 1421.7428,-200.32 1421.7428,-200.32"/>
<polygon fill="#000000" stroke="#000000" points="1425.2429,-200.32 1421.7428,-190.32 1418.2429,-200.3201 1425.2429,-200.32"/>
</g>
<!-- PerfilComponent -->
<g id="node36" class="node">
<title>PerfilComponent</title>
<polygon fill="#ffffb3" stroke="#000000" points="5070.4328,-122 4957.5672,-122 4957.5672,-86 5070.4328,-86 5070.4328,-122"/>
<text text-anchor="middle" x="5014" y="-99.8" font-family="Times,serif" font-size="14.00" fill="#000000">PerfilComponent</text>
</g>
<!-- PerfilComponent&#45;&gt;UsuarioModule -->
<g id="edge43" class="edge">
<title>PerfilComponent&#45;&gt;UsuarioModule</title>
<path fill="none" stroke="#000000" d="M5014,-122.1581C5014,-150.7386 5014,-203 5014,-203 5014,-203 1436.5809,-203 1436.5809,-203 1436.5809,-203 1436.5809,-200.0328 1436.5809,-200.0328"/>
<polygon fill="#000000" stroke="#000000" points="1440.081,-200.0328 1436.5809,-190.0328 1433.081,-200.0329 1440.081,-200.0328"/>
</g>
<!-- PostsCreadosComponent -->
<g id="node37" class="node">
<title>PostsCreadosComponent</title>
<polygon fill="#ffffb3" stroke="#000000" points="4939.266,-122 4782.734,-122 4782.734,-86 4939.266,-86 4939.266,-122"/>
<text text-anchor="middle" x="4861" y="-99.8" font-family="Times,serif" font-size="14.00" fill="#000000">PostsCreadosComponent</text>
</g>
<!-- PostsCreadosComponent&#45;&gt;UsuarioModule -->
<g id="edge44" class="edge">
<title>PostsCreadosComponent&#45;&gt;UsuarioModule</title>
<path fill="none" stroke="#000000" d="M4861,-122.317C4861,-149.9229 4861,-199 4861,-199 4861,-199 1451.4191,-199 1451.4191,-199 1451.4191,-199 1451.4191,-198.1159 1451.4191,-198.1159"/>
<polygon fill="#000000" stroke="#000000" points="1454.9192,-200.1591 1451.4191,-190.1592 1447.9192,-200.1592 1454.9192,-200.1591"/>
</g>
</g>
</svg>
